<svg width="29" height="29" viewBox="0 0 29 29" fill="none" xmlns="http://www.w3.org/2000/svg">
<rect width="29" height="29" rx="14.5" fill="white"/>
<path d="M15.2731 20.6895L20.6912 15.2715C20.7898 15.1684 20.8671 15.0469 20.9187 14.9139C21.0271 14.6501 21.0271 14.3542 20.9187 14.0903C20.8671 13.9573 20.7898 13.8358 20.6912 13.7327L15.2731 8.31468C15.1721 8.21365 15.0521 8.1335 14.9201 8.07883C14.7881 8.02415 14.6466 7.996 14.5037 7.996C14.2152 7.996 13.9384 8.11064 13.7344 8.31468C13.5303 8.51873 13.4157 8.79548 13.4157 9.08405C13.4157 9.37262 13.5303 9.64936 13.7344 9.85341L17.3103 13.4185H9.08567C8.79828 13.4185 8.52266 13.5327 8.31944 13.7359C8.11622 13.9391 8.00206 14.2147 8.00206 14.5021C8.00206 14.7895 8.11622 15.0651 8.31944 15.2683C8.52266 15.4716 8.79828 15.5857 9.08567 15.5857H17.3103L13.7344 19.1508C13.6328 19.2515 13.5522 19.3714 13.4972 19.5034C13.4422 19.6355 13.4138 19.7771 13.4138 19.9202C13.4138 20.0632 13.4422 20.2049 13.4972 20.3369C13.5522 20.4689 13.6328 20.5888 13.7344 20.6895C13.8351 20.7911 13.955 20.8717 14.087 20.9267C14.219 20.9817 14.3607 21.0101 14.5037 21.0101C14.6468 21.0101 14.7884 20.9817 14.9205 20.9267C15.0525 20.8717 15.1724 20.7911 15.2731 20.6895Z" fill="#124A61"/>
</svg>
