<svg width="62" height="62" viewBox="0 0 62 62" fill="none" xmlns="http://www.w3.org/2000/svg">
<g clip-path="url(#clip0_26_149)">
<path d="M62 5.16667V62H0V5.16667H7.75V7.75C7.75 10.5994 10.0672 12.9167 12.9167 12.9167C15.7661 12.9167 18.0833 10.5994 18.0833 7.75V5.16667H43.9167V7.75C43.9167 10.5994 46.2339 12.9167 49.0833 12.9167C51.9327 12.9167 54.25 10.5994 54.25 7.75V5.16667H62ZM56.8333 20.6667H5.16667V56.8333H56.8333V20.6667ZM51.6667 2.58333C51.6667 1.15733 50.5119 0 49.0833 0C47.6547 0 46.5 1.15733 46.5 2.58333V7.75C46.5 9.176 47.6547 10.3333 49.0833 10.3333C50.5119 10.3333 51.6667 9.176 51.6667 7.75V2.58333ZM15.5 7.75C15.5 9.176 14.3452 10.3333 12.9167 10.3333C11.4881 10.3333 10.3333 9.176 10.3333 7.75V2.58333C10.3333 1.15733 11.4881 0 12.9167 0C14.3452 0 15.5 1.15733 15.5 2.58333V7.75ZM18.0833 38.0499L20.2921 36.0065C22.8754 37.2568 24.5158 38.2075 27.4221 40.2793C32.8807 34.0819 36.4922 30.938 43.1959 26.7659L43.9167 28.4193C38.3857 33.2475 34.3351 38.6208 28.5019 49.0833C24.9033 44.8467 22.5034 42.1445 18.0833 38.0499Z" fill="#124A61"/>
</g>
<defs>
<clipPath id="clip0_26_149">
<rect width="62" height="62" fill="white"/>
</clipPath>
</defs>
</svg>
