<svg width="33" height="33" viewBox="0 0 33 33" fill="none" xmlns="http://www.w3.org/2000/svg">
<path fill-rule="evenodd" clip-rule="evenodd" d="M16.5 28.875C18.1251 28.875 19.7343 28.5549 21.2357 27.933C22.7371 27.3111 24.1013 26.3996 25.2504 25.2504C26.3996 24.1013 27.3111 22.7371 27.933 21.2357C28.5549 19.7343 28.875 18.1251 28.875 16.5C28.875 14.8749 28.5549 13.2657 27.933 11.7643C27.3111 10.2629 26.3996 8.89868 25.2504 7.74955C24.1013 6.60043 22.7371 5.68889 21.2357 5.06699C19.7343 4.44509 18.1251 4.125 16.5 4.125C13.2179 4.125 10.0703 5.42879 7.74955 7.74955C5.42879 10.0703 4.125 13.2179 4.125 16.5C4.125 19.7821 5.42879 22.9297 7.74955 25.2504C10.0703 27.5712 13.2179 28.875 16.5 28.875ZM16.181 21.505L23.056 13.255L20.944 11.495L15.0315 18.5886L11.9721 15.5279L10.0279 17.4721L14.1529 21.5971L15.2171 22.6614L16.181 21.505Z" fill="#124A61"/>
</svg>
