<svg width="62" height="62" viewBox="0 0 62 62" fill="none" xmlns="http://www.w3.org/2000/svg">
<g clip-path="url(#clip0_26_143)">
<path fill-rule="evenodd" clip-rule="evenodd" d="M62 62H33.5833V46.5H43.9167V36.1667H62V62ZM31 5.16667H54.25L62 12.9167V18.0833H54.25V23.25H62V31H43.9167V23.25H51.6667V18.0833H31V62H15.5V18.0833H12.9167V23.25H0V5.16667H15.5V0H31V5.16667ZM43.9167 51.6667H38.75V56.8333H43.9167V51.6667ZM56.8333 51.6667H49.0833V56.8333H56.8333V51.6667ZM25.8333 51.801L20.6667 54.2603V56.8333H25.8333V51.801ZM20.6667 47.0968V51.677L25.8333 49.2177V44.6348L20.6667 47.0968ZM56.8333 41.3333H49.0833V46.5H56.8333V41.3333ZM20.6667 39.711V44.5134L25.8333 42.0515V37.2517L20.6667 39.711ZM20.6667 32.5164V37.1277L25.8333 34.6683V30.0571L20.6667 32.5164ZM20.6667 25.3657V29.9331L25.8333 27.4737V22.9064L20.6667 25.3657ZM25.8333 18.0833H20.6667V22.7824L25.8333 20.3231V18.0833ZM51.7106 10.3333H5.16667V18.0833H7.75V12.9167H54.25L51.7106 10.3333ZM25.8333 2.58333H20.6667V5.16667H25.8333V2.58333Z" fill="#124A61"/>
</g>
<defs>
<clipPath id="clip0_26_143">
<rect width="62" height="62" fill="white"/>
</clipPath>
</defs>
</svg>
