<svg width="20" height="20" viewBox="0 0 20 20" fill="none" xmlns="http://www.w3.org/2000/svg">
<g clip-path="url(#clip0_426_4489)">
<path d="M19.6554 16.5517H0.345087C0.154658 16.5517 0.000244141 16.3973 0.000244141 16.2069V3.79309C0.000244141 3.60266 0.154658 3.44824 0.345087 3.44824H19.6554C19.8458 3.44824 20.0002 3.60266 20.0002 3.79309V16.2069C20.0002 16.3973 19.8458 16.5517 19.6554 16.5517Z" fill="#73AF00"/>
<path d="M9.82093 5.28147L2.55313 9.70533C2.33239 9.83967 2.33239 10.1601 2.55313 10.2944L9.82093 14.7183C9.93105 14.7854 10.0694 14.7854 10.1795 14.7183L17.4474 10.2945C17.6681 10.1601 17.6681 9.83975 17.4474 9.70537L10.1795 5.28147C10.0694 5.21444 9.93105 5.21444 9.82093 5.28147Z" fill="#FFE15A"/>
<path d="M10.0003 12.7586C11.5238 12.7586 12.7589 11.5236 12.7589 10C12.7589 8.47652 11.5238 7.24146 10.0003 7.24146C8.47676 7.24146 7.2417 8.47652 7.2417 10C7.2417 11.5236 8.47676 12.7586 10.0003 12.7586Z" fill="#41479B"/>
<path d="M7.63301 8.58873C7.50285 8.80662 7.40234 9.04342 7.33594 9.29486C8.86519 9.17978 11.1274 9.60759 12.5673 11.0047C12.6612 10.7649 12.7233 10.5093 12.7466 10.2422C11.2598 8.99088 9.20437 8.54592 7.63301 8.58873Z" fill="#F5F5F5"/>
<path d="M10.1143 10.9413L10.1877 11.1615L10.4198 11.1633C10.4499 11.1636 10.4623 11.2019 10.4382 11.2198L10.2515 11.3577L10.3215 11.579C10.3306 11.6077 10.2979 11.6314 10.2735 11.6139L10.0846 11.4789L9.89575 11.6139C9.87129 11.6314 9.83868 11.6077 9.84774 11.579L9.91778 11.3577L9.73102 11.2198C9.70684 11.2019 9.7193 11.1636 9.74934 11.1633L9.98149 11.1615L10.0549 10.9413C10.0644 10.9128 10.1047 10.9128 10.1143 10.9413Z" fill="#F5F5F5"/>
<path d="M11.0166 11.5109L11.0482 11.6057L11.1481 11.6065C11.161 11.6066 11.1664 11.6231 11.156 11.6308L11.0756 11.6901L11.1057 11.7854C11.1096 11.7977 11.0956 11.8079 11.0851 11.8004L11.0038 11.7423L10.9225 11.8004C10.912 11.8079 10.8979 11.7977 10.9018 11.7854L10.9319 11.6901L10.8516 11.6308C10.8412 11.6231 10.8465 11.6066 10.8594 11.6065L10.9594 11.6057L10.991 11.5109C10.9951 11.4986 11.0125 11.4986 11.0166 11.5109Z" fill="#F5F5F5"/>
<path d="M9.72423 10.5229L9.75583 10.6176L9.85576 10.6184C9.86869 10.6185 9.87408 10.635 9.86365 10.6427L9.78326 10.702L9.81337 10.7973C9.81728 10.8097 9.80326 10.8199 9.79271 10.8123L9.71142 10.7542L9.63013 10.8123C9.61962 10.8199 9.60556 10.8097 9.60947 10.7973L9.63958 10.702L9.55919 10.6427C9.5488 10.6351 9.55415 10.6185 9.56708 10.6184L9.66701 10.6176L9.69861 10.5229C9.70275 10.5106 9.72013 10.5106 9.72423 10.5229Z" fill="#F5F5F5"/>
<path d="M7.97399 10.4081L8.00559 10.5029L8.10551 10.5037C8.11844 10.5038 8.12383 10.5203 8.1134 10.528L8.03301 10.5873L8.06313 10.6826C8.06704 10.6949 8.05301 10.7051 8.04246 10.6976L7.96118 10.6395L7.87989 10.6976C7.86938 10.7051 7.85532 10.6949 7.85922 10.6826L7.88934 10.5873L7.80895 10.528C7.79856 10.5203 7.80391 10.5038 7.81684 10.5037L7.91676 10.5029L7.94836 10.4081C7.95254 10.3959 7.96989 10.3959 7.97399 10.4081Z" fill="#F5F5F5"/>
<path d="M9.4381 11.4784L9.4697 11.5732L9.56962 11.574C9.58255 11.574 9.58794 11.5906 9.57751 11.5983L9.49712 11.6576L9.52724 11.7529C9.53115 11.7652 9.51712 11.7754 9.50658 11.7679L9.42529 11.7098L9.344 11.7679C9.33349 11.7754 9.31943 11.7652 9.32333 11.7529L9.35345 11.6576L9.27306 11.5983C9.26267 11.5906 9.26802 11.5741 9.28095 11.574L9.38087 11.5732L9.41247 11.4784C9.41665 11.4662 9.43404 11.4662 9.4381 11.4784Z" fill="#F5F5F5"/>
<path d="M8.63256 10.342L8.65842 10.4195L8.74014 10.4202C8.75069 10.4202 8.7551 10.4338 8.74663 10.44L8.68089 10.4886L8.70553 10.5665C8.70874 10.5765 8.69725 10.5849 8.68862 10.5787L8.62214 10.5312L8.55565 10.5787C8.54702 10.5849 8.53557 10.5765 8.53874 10.5665L8.56338 10.4886L8.49764 10.44C8.48917 10.4338 8.4935 10.4202 8.50413 10.4202L8.58585 10.4195L8.6117 10.342C8.61503 10.332 8.62921 10.332 8.63256 10.342Z" fill="#F5F5F5"/>
<path d="M11.0867 8.74186L11.1191 8.83881L11.2213 8.83959C11.2345 8.83967 11.24 8.85658 11.2293 8.86443L11.1471 8.92514L11.1779 9.0226C11.182 9.03521 11.1675 9.04564 11.1568 9.03795L11.0736 8.9785L10.9905 9.03795C10.9797 9.04568 10.9654 9.03517 10.9693 9.0226L11.0002 8.92514L10.918 8.86443C10.9073 8.85658 10.9128 8.83971 10.926 8.83959L11.0282 8.83881L11.0606 8.74186C11.0648 8.72928 11.0825 8.72928 11.0867 8.74186Z" fill="#F5F5F5"/>
<path d="M8.08654 9.86788L8.1124 9.94538L8.19412 9.94604C8.20467 9.94612 8.20908 9.95964 8.20061 9.96593L8.13486 10.0144L8.15951 10.0923C8.16272 10.1024 8.15123 10.1108 8.1426 10.1046L8.07611 10.0571L8.00963 10.1046C8.001 10.1108 7.98955 10.1024 7.99272 10.0923L8.01736 10.0144L7.95162 9.96593C7.94315 9.95964 7.94748 9.94616 7.95811 9.94604L8.03982 9.94538L8.06568 9.86788C8.069 9.85784 8.08318 9.85784 8.08654 9.86788Z" fill="#F5F5F5"/>
<path d="M8.48107 10.9601L8.52022 11.0775L8.64396 11.0785C8.65998 11.0786 8.66662 11.099 8.65373 11.1085L8.55416 11.1821L8.5915 11.3C8.59635 11.3153 8.57896 11.3279 8.56592 11.3186L8.46521 11.2467L8.36451 11.3186C8.3515 11.3279 8.33408 11.3153 8.33893 11.3L8.37627 11.1821L8.2767 11.1085C8.26381 11.099 8.27045 11.0786 8.28647 11.0785L8.41022 11.0775L8.44936 10.9601C8.45455 10.9449 8.47604 10.9449 8.48107 10.9601Z" fill="#F5F5F5"/>
<path d="M11.5198 11.5357L11.5444 11.6096L11.6223 11.6102C11.6324 11.6103 11.6365 11.6231 11.6284 11.6291L11.5658 11.6754L11.5893 11.7496C11.5924 11.7592 11.5814 11.7671 11.5732 11.7613L11.5099 11.716L11.4465 11.7613C11.4383 11.7671 11.4274 11.7592 11.4304 11.7496L11.4538 11.6754L11.3912 11.6291C11.3831 11.6231 11.3873 11.6103 11.3974 11.6102L11.4752 11.6096L11.4999 11.5357C11.5031 11.5262 11.5167 11.5262 11.5198 11.5357Z" fill="#F5F5F5"/>
<path d="M11.7921 10.9719L11.8237 11.0666L11.9236 11.0674C11.9366 11.0675 11.9419 11.084 11.9315 11.0917L11.8511 11.1511L11.8812 11.2463C11.8851 11.2587 11.8711 11.2689 11.8606 11.2613L11.7793 11.2032L11.698 11.2613C11.6875 11.2689 11.6734 11.2587 11.6773 11.2463L11.7075 11.1511L11.6271 11.0917C11.6167 11.0841 11.622 11.0675 11.635 11.0674L11.7349 11.0666L11.7665 10.9719C11.7706 10.9596 11.788 10.9596 11.7921 10.9719Z" fill="#F5F5F5"/>
</g>
<defs>
<clipPath id="clip0_426_4489">
<rect width="20" height="20" fill="white"/>
</clipPath>
</defs>
</svg>
