<svg width="125" height="32" viewBox="0 0 125 32" fill="none" xmlns="http://www.w3.org/2000/svg">
<g clip-path="url(#clip0_35_33)">
<path d="M14.7297 27.3778H6.55405C5.81081 27.2 5.40541 26.7259 5.40541 26.0741C5.40541 25.5407 5.67568 25.1259 6.21622 24.9481C6.28378 24.9481 6.48649 24.8889 6.68919 24.8296C7.2973 25.0074 7.90541 25.0667 8.58108 25.1259C13.2432 25.1259 17.0946 21.7481 17.0946 17.6C17.0946 16.3556 16.6892 15.1704 16.0811 14.1037C16.5541 13.6889 16.8243 13.1556 16.8243 12.5037C16.8243 11.6741 16.4189 11.0222 15.6757 10.5481C15.2703 10.2519 14.9324 10.1333 14.527 10.1333H10C9.52703 10.0741 9.05405 10.0148 8.51351 10.0148C7.63514 10.0148 6.89189 10.1333 6.14865 10.3111C5.54054 10.4296 4.86486 10.6667 4.32432 10.963C1.75676 12.2074 0 14.6963 0 17.4815C0 19.2593 0.675676 20.9185 1.82432 22.163C1.48649 22.4593 1.14865 22.9333 0.810811 23.5852C-0.337838 25.8963 -0.202703 28.2667 1.89189 30.1037C3.17568 31.2296 4.7973 31.9407 6.08108 31.9407H14.7297C16.1486 31.6444 16.8243 30.8741 16.8243 29.6889C16.8243 28.5037 16.1486 27.7333 14.7297 27.3778ZM8.64865 14.4C10.5405 14.4 12.0946 15.763 12.0946 17.4222C12.0946 19.0815 10.6081 20.4444 8.64865 20.4444C6.68919 20.4444 5.2027 19.0815 5.2027 17.4222C5.2027 15.763 6.75676 14.4 8.64865 14.4ZM65.0676 0C63.5811 0 62.7027 0.651852 62.4324 2.01481V10.6074C61.5541 10.2519 60.8108 10.0741 60.2703 10.0741H59.0541C58.7838 10.0741 58.5135 10.0741 58.2432 10.2519C57.1622 10.2519 56.2162 10.4889 55.2703 11.0222C52.5 12.2667 50.6081 14.8148 50.6081 17.7185C50.6081 21.8667 54.4595 25.2444 59.1216 25.2444C60.6757 25.2444 62.0946 24.8296 63.3108 24.237C63.8513 24.7111 64.527 24.9481 65.1351 24.9481C65.473 24.9481 65.7432 24.8889 66.0811 24.7704C66.3514 24.6519 66.6892 24.4148 67.0946 24C67.5 23.5852 67.6351 23.2296 67.6351 22.8741V2.01481C67.2973 0.651852 66.4865 0 65.0676 0ZM59.1892 20.563C57.2973 20.563 55.7432 19.2 55.7432 17.5407C55.8108 15.8815 57.2973 14.5185 59.1892 14.5185C61.0811 14.5185 62.6351 15.8815 62.6351 17.5407C62.6351 19.2 61.1486 20.563 59.1892 20.563ZM78.5135 9.8963C73.7838 9.8963 70 13.2741 69.9324 17.4815C69.9324 18.4296 70.1351 19.3778 70.5405 20.2667C70.8108 20.7407 71.0811 21.2148 71.4189 21.6889C71.8919 22.2815 72.4324 22.8148 73.0405 23.2296C74.1892 24.1778 75.4054 24.7111 76.7568 24.8296C77.2973 24.9481 77.8378 25.0074 78.4459 25.0074C79.8649 25.0074 81.2162 24.7111 82.3649 24.1778C82.9054 24.6519 83.5135 24.8889 84.1892 24.8889C85.1351 24.8889 85.8784 24.4741 86.4865 23.5852C86.6892 23.2889 86.7568 23.0519 86.7568 22.9333V19.2593C86.9595 18.6667 87.027 18.0148 87.027 17.4222C87.027 13.2741 83.2432 9.8963 78.5135 9.8963ZM78.6487 20.3852C76.7568 20.3852 75.2027 19.0222 75.2027 17.363C75.2027 15.7037 76.7568 14.3407 78.6487 14.3407C80.5405 14.3407 82.0946 15.7037 82.0946 17.363C82.0946 19.0222 80.5405 20.3852 78.6487 20.3852ZM103.108 0C101.622 0 100.811 0.711111 100.473 2.01481V10.4889C99.4595 10.1333 98.3108 9.95555 97.1622 9.95555C92.5 9.95555 88.6487 13.3333 88.7162 17.4815C88.7162 21.6296 92.5676 25.0074 97.2297 25.0074C98.7162 25.0074 100.068 24.7111 101.284 24.1185C101.824 24.6519 102.5 24.8889 103.176 24.8889C103.514 24.8889 103.784 24.8296 104.122 24.7111C104.459 24.5926 104.797 24.3556 105.135 23.9407C105.473 23.5259 105.676 23.1704 105.676 22.8148V2.01481C105.405 0.651852 104.527 0 103.108 0ZM97.2973 20.4444C95.4054 20.4444 93.8513 19.0815 93.8513 17.4222C93.8513 15.763 95.4054 14.4 97.2973 14.4C99.1892 14.4 100.743 15.763 100.743 17.4222C100.743 19.0815 99.1892 20.4444 97.2973 20.4444ZM121.622 11.4963C120.473 10.6667 119.189 10.1926 117.838 10.0741C117.432 10.0148 116.959 10.0148 116.486 10.0148C115.946 10.0148 115.473 10.0741 115 10.0741C113.716 10.1926 112.568 10.6074 111.486 11.3778C109.392 12.7407 107.973 14.9333 107.973 17.4815C107.973 21.6296 111.757 25.0074 116.486 25.0074C121.216 25.0074 125 21.6296 125 17.4815C125 15.0519 123.649 12.8593 121.622 11.4963ZM116.554 20.5037C114.662 20.5037 113.176 19.1407 113.176 17.4815C113.176 15.8222 114.73 14.4593 116.554 14.4593C118.378 14.4593 120 15.8222 120 17.4815C120 19.1407 118.514 20.5037 116.554 20.5037ZM29.9324 11.6148C29.8649 11.437 29.6622 11.1407 29.3243 10.7259C28.9189 10.4296 28.6486 10.1926 28.4459 10.1926C28.0405 10.1333 27.6351 10.0741 27.1622 10.0741C25.8108 10.0741 24.4595 10.4296 23.1081 11.0815C20.7432 12.2074 19.4595 14.1037 19.1892 16.6519V22.9333C19.527 24.1778 20.4054 24.8296 21.7568 24.8296C23.2432 24.8296 24.1216 24.1185 24.3919 22.8148V16.7704C24.3919 16.4741 24.527 16.1185 24.9324 15.7037C25.3378 15.2889 25.6757 14.9926 26.0135 14.9333C26.7568 14.8148 27.4324 14.6963 28.1757 14.5778C28.9865 14.4 29.527 13.9259 29.9324 13.2148C30.2027 12.7407 30.2027 12.2074 29.9324 11.6148ZM48.4459 22.9333V12.0296C48.0405 10.7852 47.2297 10.1333 45.8784 10.1333C44.527 10.1333 43.6486 10.7852 43.3108 12.0296V18.2519C43.3108 18.4 43.2635 18.5541 43.1689 18.72C43.1689 18.72 43.1622 18.7319 43.1622 18.7378C43.0338 18.9689 42.8108 19.2237 42.5 19.4963C41.9595 19.9704 41.4865 20.2074 41.0811 20.2074H39.2568C38.8514 20.2074 38.3784 19.9704 37.8378 19.4963C37.6149 19.277 37.4392 19.0815 37.3108 18.8919C37.1284 18.6193 37.0338 18.3763 37.0338 18.1333V12.0889C36.7635 10.7852 35.8851 10.1333 34.4662 10.1333C33.0473 10.1333 32.2365 10.7852 31.8986 12.0296V18.3704C31.8986 19.9111 32.6419 21.4519 34.1959 22.8148C35.75 24.1778 37.4392 24.8889 39.2635 24.8889H41.0878C41.8311 24.8889 42.8446 24.6519 44.0608 24.1185C44.6689 24.6519 45.277 24.8889 45.9527 24.8889C46.8987 24.8889 47.6419 24.4741 48.25 23.5852C48.4527 23.2889 48.5203 23.0519 48.5203 22.9333H48.4527H48.4459Z" fill="#050505"/>
<path fill-rule="evenodd" clip-rule="evenodd" d="M43.1622 18.7378C42.7568 19.8459 41.5676 20.6222 40.2027 20.6222C38.8378 20.6222 37.7568 19.8933 37.3108 18.8919C37.4392 19.0815 37.6149 19.2771 37.8378 19.4963C38.3784 19.9704 38.8513 20.2074 39.2568 20.2074H41.0811C41.4865 20.2074 41.9595 19.9704 42.5 19.4963C42.8108 19.2237 43.0338 18.9689 43.1622 18.7378Z" fill="white"/>
</g>
<defs>
<clipPath id="clip0_35_33">
<rect width="125" height="32" fill="white"/>
</clipPath>
</defs>
</svg>
