<svg width="83" height="74" viewBox="0 0 83 74" fill="none" xmlns="http://www.w3.org/2000/svg">
<path d="M54.9295 8.09375H28.0705L9.07812 25.0267V48.9733L28.0705 65.9062H54.9295L73.9219 48.9733V25.0267L54.9295 8.09375Z" fill="white"/>
<path d="M54.0432 10.0015H28.9566L11.218 25.8168V48.1832L28.9568 63.9983H54.0434L71.782 48.183V25.8167L54.0432 10.0015Z" fill="url(#paint0_linear_66_137)"/>
<path d="M50.0144 18.6733H32.9856L20.9445 29.4088V44.591L32.9856 55.3265H50.0144L62.0555 44.591V29.4088L50.0144 18.6733Z" fill="white"/>
<path d="M25.0945 42.6048H57.9055V43.1829H25.0945V42.6048ZM40.8399 46.1793H40.1885V45.3187H40.8399V46.1793ZM42.0407 45.3187H41.3891V46.1793H42.0407V45.3187ZM32.2922 49.3641C32.3308 50.5692 33.3443 51.3954 35.0239 51.3954C36.5104 51.3954 37.524 50.6466 37.524 49.5622C37.5338 48.3744 36.4428 48.0559 35.3232 47.8752C34.2614 47.7116 33.5664 47.5826 33.5664 46.9629C33.5664 46.3949 34.0972 46.1021 34.8599 46.1021C35.6804 46.1021 36.2209 46.5153 36.3077 47.1264H37.4178C37.3696 46.0161 36.4043 45.2673 34.8599 45.2673C33.4215 45.2673 32.4562 45.9816 32.4562 47.0317C32.4562 48.2281 33.518 48.5464 34.6378 48.7187C35.7093 48.8907 36.4139 49.0286 36.4139 49.6654C36.4139 50.242 35.8349 50.5605 35.0336 50.5605C34.0876 50.5605 33.4699 50.0871 33.4119 49.3813L32.2922 49.3641ZM38.4503 48.7617C38.4503 50.4745 39.3577 51.3954 41.1048 51.3954C42.8616 51.3954 43.7787 50.4745 43.7787 48.7617V45.3187H42.6686V48.8133C42.6686 49.9322 42.186 50.5175 41.1048 50.5175C40.0431 50.5175 39.5604 49.9322 39.5604 48.8133V45.3186H38.4503V48.7617ZM47.2618 51.3437C49.3757 51.3437 50.7078 50.113 50.7078 48.3228C50.7078 46.5326 49.3757 45.3187 47.2618 45.3187H44.9643V51.3437H47.2618ZM46.0743 46.1797H47.2618C48.7482 46.1797 49.5689 47.0317 49.5689 48.3228C49.5689 49.6139 48.7482 50.483 47.2618 50.483H46.0743V46.1797ZM57.9055 28.7329L53.4486 40.4688H50.0892L46.2931 30.5142V35.4308C46.2931 38.7604 44.4435 40.5845 40.8967 40.5845C37.3683 40.5845 35.5104 38.7604 35.5104 35.4308V30.9148H31.7005V40.4688H28.8856V30.9148H25.0945V28.7329H38.3255V35.5645C38.3255 37.4219 39.0952 38.4258 40.8967 38.4258C42.7171 38.4258 43.4775 37.4219 43.4775 35.5645V28.7329H48.5983L51.7596 37.4235L54.9962 28.7329H57.9055ZM39.1916 30.9148H40.4868V28.7329H39.1916V30.9148ZM41.3165 30.9148H42.6117V28.7329H41.3165V30.9148Z" fill="#0B253B"/>
<defs>
<linearGradient id="paint0_linear_66_137" x1="41.5" y1="10.0015" x2="41.5" y2="63.9983" gradientUnits="userSpaceOnUse">
<stop offset="0.07" stop-color="#0046AD"/>
<stop offset="0.41" stop-color="#00A0E1"/>
<stop offset="0.88" stop-color="#0046AD"/>
</linearGradient>
</defs>
</svg>
