<svg width="196" height="38" viewBox="0 0 196 38" fill="none" xmlns="http://www.w3.org/2000/svg">
<g clip-path="url(#clip0_228_15)">
<path d="M75.974 12.0044C75.8172 11.5748 75.4738 11.2109 74.9575 10.9231C74.4735 10.6538 73.9088 10.5161 73.2819 10.5161C72.655 10.5161 72.0604 10.6538 71.5833 10.9272C71.0808 11.2171 70.7466 11.5789 70.606 11.9674L64.6573 25.4645C64.5351 25.7996 64.4867 26.3258 64.95 26.924C65.2911 27.3659 65.835 27.6661 66.5749 27.8202C66.8123 27.8675 67.0451 27.8922 67.2709 27.8922C67.6605 27.8922 68.0315 27.8202 68.3773 27.6784C68.9535 27.442 69.3453 27.0967 69.5504 26.63L70.4908 24.2414H76.0062L76.9143 26.591C77.0826 27.0535 77.4698 27.4112 78.0621 27.6537C78.6084 27.8778 79.2238 27.9271 79.9014 27.7956C80.6389 27.6414 81.1829 27.3351 81.5148 26.889C81.9573 26.2909 81.9066 25.7728 81.7844 25.4419L75.9717 12.0044H75.974ZM74.545 20.5023H71.9705L73.275 17.2174L74.545 20.5023Z" fill="#575756"/>
<path d="M96.8741 12.8924C96.1458 12.2346 95.2146 11.7084 94.1106 11.3281C93.0181 10.9519 91.7228 10.7607 90.2639 10.7607H86.3595C85.6173 10.7607 85.0066 10.9314 84.5456 11.2664C83.9141 11.7269 83.7804 12.2367 83.7804 12.5841V25.8469C83.7804 26.1943 83.9141 26.7041 84.5456 27.1625C85.0066 27.4975 85.6173 27.6681 86.3595 27.6681H90.2639C91.7182 27.6681 93.0066 27.4913 94.0945 27.1419C95.2008 26.7863 96.1343 26.2868 96.8649 25.6536C97.6001 25.0164 98.151 24.262 98.5036 23.4069C98.8447 22.5743 99.0199 21.6699 99.0199 20.7181V18.0212C99.0199 17.0427 98.847 16.1053 98.5082 15.2337C98.1602 14.3396 97.6117 13.5502 96.8764 12.8883L96.8741 12.8924ZM93.9516 17.7806V20.9874C93.9516 21.9001 93.6543 22.5641 93.0458 23.0163C92.4027 23.4932 91.467 23.7337 90.2639 23.7337H88.8464V14.6931H90.2639C91.4647 14.6931 92.3636 14.9583 93.0089 15.503C93.6427 16.0395 93.9516 16.7837 93.9516 17.7806Z" fill="#575756"/>
<path d="M112.028 14.6952C112.784 14.6952 113.388 14.5184 113.824 14.1689C114.276 13.8072 114.515 13.3159 114.515 12.7526C114.515 12.1586 114.276 11.6508 113.824 11.287C113.388 10.9375 112.784 10.7607 112.028 10.7607H103.524C102.807 10.7607 102.205 10.9293 101.733 11.2603C101.08 11.7207 100.944 12.2326 100.944 12.5841V25.8469C100.944 26.1963 101.08 26.7102 101.733 27.1707C102.203 27.5016 102.804 27.6702 103.524 27.6702H112.028C112.784 27.6702 113.388 27.4934 113.824 27.144C114.276 26.7801 114.515 26.2909 114.515 25.7276C114.515 25.1336 114.276 24.6258 113.824 24.262C113.388 23.9125 112.784 23.7358 112.028 23.7358H106.01V21.0861H109.788C110.565 21.0861 111.178 20.9093 111.616 20.5598C112.068 20.196 112.307 19.7068 112.307 19.1435C112.307 18.5474 112.068 18.0417 111.616 17.6799C111.18 17.3305 110.565 17.1516 109.788 17.1516H106.01V14.6972H112.028V14.6952Z" fill="#575756"/>
<path d="M134.908 11.022C134.45 10.6869 133.841 10.5184 133.145 10.5184H133.138L132.636 10.4937C131.972 10.4731 131.403 10.58 130.937 10.8103C130.492 11.0302 130.133 11.3159 129.865 11.6592L126.042 17.8322L122.239 11.686C121.983 11.3221 121.616 11.0302 121.146 10.8185C120.697 10.617 120.144 10.5163 119.503 10.5163H118.989C118.27 10.5163 117.668 10.6849 117.198 11.0158C116.546 11.4763 116.41 11.9881 116.41 12.3396V26.0896C116.41 26.4391 116.546 26.953 117.2 27.4134C117.671 27.7444 118.272 27.9129 118.989 27.9129C119.706 27.9129 120.282 27.7403 120.736 27.4011C121.349 26.9406 121.476 26.435 121.476 26.0917V18.6483L123.4 21.89L123.44 21.9496C123.668 22.2538 123.981 22.5437 124.368 22.8068C124.825 23.1172 125.387 23.2734 126.042 23.2734C126.696 23.2734 127.286 23.1172 127.745 22.8068C128.144 22.5355 128.453 22.2374 128.683 21.8941L130.64 18.6277V26.0937C130.64 26.4391 130.769 26.9447 131.38 27.4031C131.834 27.7423 132.41 27.915 133.097 27.915C133.839 27.915 134.447 27.7444 134.911 27.4093C135.542 26.9489 135.676 26.4391 135.676 26.0917V12.3376C135.676 11.9922 135.542 11.4824 134.911 11.022H134.908Z" fill="#575756"/>
<path d="M141.871 11.0218C141.41 10.6867 140.832 10.5161 140.15 10.5161C139.405 10.5161 138.797 10.6867 138.336 11.0218C137.704 11.4822 137.57 11.992 137.57 12.3394V26.0668C137.57 26.4142 137.704 26.924 138.336 27.3844C138.797 27.7195 139.407 27.8901 140.15 27.8901C140.832 27.8901 141.41 27.7195 141.871 27.3844C142.503 26.924 142.636 26.4142 142.636 26.0668V12.3374C142.636 11.992 142.503 11.4822 141.871 11.0218Z" fill="#575756"/>
<path d="M150.369 15.0467C150.929 14.6294 151.586 14.4259 152.379 14.4259C152.874 14.4259 153.275 14.4711 153.571 14.5595C153.895 14.6582 154.204 14.7794 154.474 14.9151C154.868 15.1207 155.218 15.2646 155.539 15.355C155.873 15.4475 156.256 15.4948 156.675 15.4948C157.18 15.4948 157.629 15.353 158.007 15.0713C158.3 14.8576 158.648 14.4608 158.648 13.7948C158.648 13.2994 158.454 12.8307 158.074 12.4011C157.74 12.0229 157.274 11.6878 156.694 11.4021C156.14 11.1307 155.493 10.9128 154.767 10.7546C154.045 10.5963 153.25 10.5161 152.404 10.5161C151.162 10.5161 150.04 10.6908 149.065 11.0382C148.085 11.3856 147.246 11.8646 146.571 12.4628C145.889 13.0651 145.372 13.7804 145.031 14.5903C144.697 15.3838 144.529 16.2287 144.529 17.1002V21.3286C144.529 22.2166 144.697 23.0656 145.031 23.8529C145.372 24.6525 145.889 25.3638 146.571 25.9661C147.246 26.5622 148.085 27.0412 149.065 27.3906C150.04 27.738 151.162 27.9127 152.404 27.9127C153.248 27.9127 154.041 27.8326 154.767 27.6743C155.493 27.516 156.138 27.3022 156.684 27.0432C157.27 26.7657 157.738 26.4306 158.074 26.0504C158.454 25.6207 158.648 25.1521 158.648 24.6566C158.648 24.2147 158.48 23.8159 158.159 23.5035C157.818 23.1725 157.33 23.0039 156.705 23.0039C156.486 23.0039 156.293 23.0142 156.127 23.0327C155.938 23.0533 155.746 23.0923 155.562 23.1499C155.403 23.1992 155.225 23.2671 155.032 23.3555C154.859 23.4336 154.656 23.5322 154.456 23.635C154.191 23.7542 153.907 23.8467 153.614 23.9064C153.319 23.966 152.904 23.9968 152.379 23.9968C151.584 23.9968 150.927 23.7974 150.365 23.3863C149.848 23.0081 149.599 22.3975 149.599 21.5177V16.9255C149.599 16.0436 149.851 15.429 150.369 15.0426V15.0467Z" fill="#575756"/>
<path d="M175.3 12.5388C174.593 11.9078 173.699 11.4041 172.641 11.0465C171.599 10.695 170.352 10.5161 168.934 10.5161C167.517 10.5161 166.3 10.695 165.258 11.0465C164.2 11.4041 163.308 11.9078 162.61 12.5429C161.907 13.1802 161.379 13.9387 161.043 14.7979C160.713 15.6366 160.545 16.5493 160.545 17.5134V20.9154C160.545 21.8795 160.713 22.7943 161.043 23.6309C161.382 24.4922 161.909 25.2507 162.61 25.888C163.311 26.5231 164.203 27.0247 165.258 27.3824C166.298 27.7339 167.535 27.9127 168.934 27.9127C170.334 27.9127 171.599 27.7339 172.641 27.3824C173.696 27.0268 174.593 26.5252 175.3 25.8921C176.015 25.2548 176.55 24.4943 176.888 23.6309C177.218 22.7922 177.386 21.8795 177.386 20.9154V17.5134C177.386 16.5514 177.218 15.6366 176.888 14.7979C176.55 13.9366 176.015 13.1761 175.3 12.5388ZM172.318 17.5134V20.9401C172.318 22.0563 172.041 22.8354 171.493 23.2568C170.912 23.7028 170.052 23.929 168.934 23.929C167.817 23.929 166.998 23.7008 166.397 23.2506C165.834 22.8292 165.549 22.0522 165.549 20.9401V17.5134C165.549 16.4013 165.834 15.6243 166.397 15.2029C166.998 14.7527 167.851 14.5246 168.934 14.5246C170.018 14.5246 170.912 14.7507 171.493 15.1988C172.041 15.6202 172.318 16.3993 172.318 17.5134Z" fill="#575756"/>
<path d="M195.26 11.0281C194.808 10.6889 194.23 10.5162 193.543 10.5162C192.801 10.5162 192.19 10.6868 191.729 11.0219C191.098 11.4824 190.964 11.9921 190.964 12.3375V19.6513L184.264 11.7927C184.114 11.4536 183.84 11.1596 183.443 10.915C183.012 10.6498 182.489 10.5142 181.89 10.5142C181.171 10.5142 180.569 10.6827 180.099 11.0137C179.447 11.4741 179.311 11.986 179.311 12.3375V26.0895C179.311 26.439 179.447 26.9529 180.101 27.4133C180.572 27.7443 181.173 27.9128 181.89 27.9128C182.607 27.9128 183.183 27.7402 183.637 27.401C184.25 26.9405 184.377 26.4349 184.377 26.0916V18.9134L191.093 26.737L191.158 26.8234C191.354 27.1625 191.665 27.4339 192.084 27.6292C192.487 27.8183 192.978 27.9149 193.545 27.9149C194.23 27.9149 194.808 27.7422 195.262 27.403C195.876 26.9446 196.002 26.4369 196.002 26.0936V12.3375C196.002 11.9942 195.873 11.4865 195.262 11.0281H195.26Z" fill="#575756"/>
<path d="M53.2989 33.2556C52.2226 34.8385 50.3534 35.9341 48.1868 36.0903H38.7209C36.9531 36.0903 36.9946 34.7213 36.9946 34.7213V25.4567C37.0153 24.026 38.5181 24.0239 38.5181 24.0239L53.9558 24.028C55.8872 24.028 57.148 23.7628 57.9708 23.4237L53.3012 33.2556H53.2989ZM24.5624 4.21194C24.5624 4.21194 22.8891 2.35573 20.5612 2.28995C20.5612 2.28995 21.6859 1.90555 22.7554 1.88705H35.8099C35.8099 1.88705 37.9511 1.86033 39.2257 3.13892L57.1895 19.3104C59.7432 22.0156 55.0736 22.0999 55.0736 22.0999H41.7771L24.5624 4.21194ZM17.7816 22.0999H5.02666C5.02666 22.0999 0.723556 22.2253 3.19663 19.3104L17.2745 4.62512C17.2745 4.62512 19.7153 2.28173 23.0135 5.37336L28.5681 11.1208L17.7816 22.0978V22.0999ZM22.087 24.026C22.087 24.026 23.5897 24.0301 23.6105 25.4587V34.7234C23.6105 34.7234 23.6497 36.0924 21.8818 36.0924H12.6118C10.3577 35.9917 8.40554 34.8755 7.29692 33.2454L2.63426 23.4237C3.45708 23.7649 4.71782 24.028 6.65157 24.028L22.087 24.0239V24.026ZM59.598 18.8767C59.5565 18.8417 59.5243 18.8006 59.4851 18.7657L40.8068 1.85622C38.9652 0.0513902 36.2156 0.00411122 35.8007 0H22.7139C21.301 0.0246673 19.932 0.485124 19.7775 0.530347C17.8046 1.10181 16.2673 2.75041 16.1474 2.86346C16.1244 2.88608 16.1037 2.90869 16.0806 2.9313L1.00705 18.8726C0.981697 18.8993 0.960953 18.9239 0.937905 18.9507C-0.866773 20.9775 0.458501 23.7505 0.645192 24.1472L5.30785 33.9689C5.34704 34.0532 5.39313 34.1334 5.44614 34.2095C6.96272 36.4377 9.59944 37.8458 12.5035 37.9753C12.5404 37.9753 12.575 37.9774 12.6141 37.9774H21.8842C23.3316 37.9774 24.2259 37.447 24.7214 37.001C25.694 36.1273 25.7678 35.0338 25.7678 34.7213V25.4341C25.7378 23.2983 23.8525 22.141 22.0893 22.1369H20.7732L29.8934 12.6708L39.009 22.1369H38.5158C36.7572 22.141 34.8718 23.2983 34.8442 25.4341C34.8442 25.4423 34.8442 25.4505 34.8442 25.4567V34.7213C34.8442 35.0338 34.9179 36.1273 35.8883 37.001C36.3838 37.447 37.2781 37.9774 38.7255 37.9774H48.1914C48.249 37.9774 48.309 37.9753 48.3689 37.9712C51.1577 37.7698 53.6953 36.3678 55.1566 34.2197C55.2096 34.1416 55.2557 34.0615 55.2949 33.9792L59.9645 24.1472C60.1581 23.7402 62.0342 20.9796 59.6049 18.8746" fill="#CE2616"/>
<path d="M64.572 34.8407C64.572 34.5262 64.6204 34.2322 64.7172 33.9568C64.814 33.6813 64.9661 33.4388 65.1759 33.2291C65.3856 33.0194 65.653 32.857 65.978 32.7378C66.3029 32.6186 66.6948 32.561 67.1511 32.561C67.5452 32.561 67.8864 32.6083 68.1722 32.7029C68.458 32.7974 68.6907 32.9249 68.8682 33.0852C68.9696 33.1757 69.0226 33.2887 69.0319 33.4244C69.0388 33.5601 69.0065 33.6813 68.9327 33.7841C68.859 33.889 68.7461 33.9609 68.5962 34.0041C68.4464 34.0452 68.262 34.0185 68.0454 33.9198C67.9302 33.8643 67.8011 33.8129 67.6628 33.7677C67.5245 33.7225 67.3539 33.6998 67.1511 33.6998C66.7478 33.6998 66.4458 33.8088 66.2453 34.0246C66.0448 34.2405 65.9434 34.5344 65.9434 34.9024V35.6547C65.9434 36.0247 66.0448 36.3166 66.2453 36.5325C66.4458 36.7483 66.7478 36.8573 67.1511 36.8573C67.3516 36.8573 67.5337 36.8388 67.6974 36.7997C67.861 36.7606 67.9878 36.7175 68.08 36.6681C68.2436 36.5921 68.3957 36.5654 68.5386 36.59C68.6815 36.6147 68.7968 36.6702 68.882 36.7565C68.9673 36.8429 69.018 36.9477 69.0319 37.071C69.048 37.1923 69.0042 37.3177 68.9051 37.4431C68.7576 37.624 68.5248 37.7617 68.2021 37.8563C67.8817 37.9508 67.5314 37.9981 67.1511 37.9981C66.6948 37.9981 66.3029 37.9385 65.978 37.8213C65.653 37.7021 65.3856 37.5397 65.1759 37.3301C64.9661 37.1204 64.814 36.8778 64.7172 36.6024C64.6204 36.3269 64.572 36.033 64.572 35.7185V34.8407Z" fill="#575756"/>
<path d="M70.016 34.9558C70.016 34.629 70.069 34.3206 70.1727 34.0308C70.2764 33.741 70.4355 33.4861 70.6498 33.2682C70.8619 33.0482 71.1361 32.8755 71.468 32.7502C71.7999 32.6248 72.1964 32.561 72.6527 32.561C73.1091 32.561 73.4917 32.6248 73.8259 32.7502C74.1578 32.8755 74.4343 33.0482 74.651 33.2682C74.8677 33.4881 75.029 33.743 75.1327 34.0308C75.2364 34.3206 75.2894 34.629 75.2894 34.9558V35.6773C75.2894 35.9918 75.2364 36.2879 75.1327 36.5654C75.029 36.8449 74.8677 37.0875 74.651 37.2972C74.4343 37.5068 74.1601 37.6713 73.8259 37.7946C73.494 37.9159 73.1022 37.9776 72.6527 37.9776C72.2033 37.9776 71.8022 37.9159 71.468 37.7946C71.1361 37.6733 70.8619 37.5068 70.6498 37.2972C70.4378 37.0875 70.2787 36.8449 70.1727 36.5654C70.069 36.2858 70.016 35.9898 70.016 35.6773V34.9558ZM71.3851 35.6876C71.3851 36.072 71.498 36.368 71.7216 36.5756C71.9451 36.7853 72.2563 36.8902 72.6504 36.8902C73.0445 36.8902 73.3557 36.7853 73.5792 36.5756C73.8028 36.366 73.9158 36.07 73.9158 35.6876V34.9353C73.9158 34.518 73.8028 34.1994 73.5792 33.9835C73.3557 33.7677 73.0445 33.6587 72.6504 33.6587C72.2563 33.6587 71.9451 33.7677 71.7216 33.9835C71.498 34.1994 71.3851 34.5159 71.3851 34.9353V35.6876Z" fill="#575756"/>
<path d="M79.3044 32.561C79.7308 32.561 80.1042 32.6124 80.4246 32.7173C80.745 32.8221 81.0146 32.9701 81.2313 33.1613C81.4479 33.3524 81.6116 33.5847 81.7199 33.8561C81.8282 34.1274 81.8835 34.4275 81.8835 34.7564V37.5068C81.8835 37.6322 81.8167 37.7453 81.6853 37.846C81.5539 37.9467 81.388 37.9981 81.1852 37.9981C80.9823 37.9981 80.821 37.9467 80.6966 37.846C80.5721 37.7453 80.5099 37.6322 80.5099 37.5068V34.8202C80.5099 34.4378 80.3946 34.1541 80.1664 33.9732C79.9383 33.7923 79.6502 33.7019 79.3021 33.7019C78.9541 33.7019 78.6637 33.7923 78.4309 33.9732C78.1981 34.1541 78.0829 34.4378 78.0829 34.8202V37.5068C78.0829 37.6322 78.023 37.7453 77.9031 37.846C77.7833 37.9467 77.6219 37.9981 77.4214 37.9981C77.2209 37.9981 77.0434 37.9467 76.9166 37.846C76.7899 37.7453 76.7253 37.6322 76.7253 37.5068V34.8613C76.7253 34.5344 76.7784 34.2281 76.889 33.9465C76.9973 33.6649 77.161 33.4203 77.3776 33.2147C77.5943 33.0092 77.8639 32.8488 78.1843 32.7337C78.5047 32.6186 78.878 32.561 79.3044 32.561Z" fill="#575756"/>
<path d="M83.3218 37.2457C83.2988 37.2046 83.2826 37.1511 83.2757 37.0894C83.2688 37.0257 83.2757 36.964 83.2941 36.9003C83.3126 36.8366 83.3448 36.779 83.3863 36.7235C83.4278 36.668 83.4877 36.6269 83.5661 36.5981C83.6744 36.557 83.7689 36.5344 83.8496 36.5344C83.9303 36.5344 84.0017 36.5468 84.064 36.5714C84.1262 36.5961 84.1838 36.6269 84.2391 36.666C84.2921 36.705 84.3474 36.74 84.4028 36.7749C84.6263 36.9291 84.979 37.0052 85.4584 37.0052C85.7073 37.0052 85.9055 36.9558 86.0553 36.8592C86.2074 36.7626 86.2812 36.6331 86.2812 36.4728C86.2812 36.3124 86.212 36.185 86.0715 36.0904C85.9332 35.9959 85.7557 35.9157 85.5436 35.8499C85.3316 35.7841 85.1034 35.7183 84.8591 35.6505C84.6148 35.5847 84.3866 35.4943 84.1746 35.3792C83.9625 35.2641 83.7851 35.1161 83.6468 34.9352C83.5085 34.7543 83.437 34.5096 83.437 34.2034C83.437 33.7162 83.626 33.3195 84.0063 33.0173C84.3866 32.713 84.9075 32.563 85.5736 32.563C85.8686 32.563 86.1222 32.5856 86.3411 32.6308C86.5578 32.676 86.7376 32.7295 86.8805 32.7932C87.0233 32.8569 87.1363 32.9248 87.217 32.9967C87.2976 33.0707 87.3552 33.1386 87.3852 33.2002C87.4382 33.2989 87.4613 33.412 87.4497 33.5394C87.4382 33.6689 87.3783 33.7676 87.27 33.8375C87.1155 33.9279 86.9726 33.9567 86.8413 33.9259C86.7099 33.895 86.59 33.8519 86.4817 33.7943C86.4195 33.7676 86.3204 33.7265 86.1844 33.6751C86.0484 33.6237 85.8456 33.597 85.5759 33.597C85.327 33.597 85.1403 33.6504 85.0135 33.7594C84.8868 33.8683 84.8222 34.0019 84.8222 34.1623C84.8222 34.2938 84.8891 34.3966 85.0251 34.4706C85.161 34.5446 85.3316 34.6104 85.5367 34.67C85.7419 34.7296 85.9631 34.7913 86.2051 34.8591C86.4448 34.9249 86.6684 35.0194 86.8735 35.1407C87.0787 35.262 87.2492 35.4244 87.3852 35.6279C87.5212 35.8294 87.588 36.0925 87.588 36.4111C87.588 36.8983 87.399 37.2868 87.0187 37.5725C86.6384 37.8582 86.1199 38.0021 85.463 38.0021C85.2233 38.0021 84.9882 37.9836 84.76 37.9446C84.5318 37.9055 84.3221 37.8521 84.1331 37.7822C83.9441 37.7123 83.7782 37.6321 83.6399 37.5417C83.5016 37.4512 83.3956 37.3526 83.3264 37.2498L83.3218 37.2457Z" fill="#575756"/>
<path d="M88.7911 34.9558C88.7911 34.629 88.8442 34.3206 88.9479 34.0308C89.0516 33.741 89.2106 33.4861 89.425 33.2682C89.6393 33.0503 89.9113 32.8756 90.2432 32.7502C90.5751 32.6248 90.9715 32.561 91.4279 32.561C91.8842 32.561 92.2668 32.6248 92.601 32.7502C92.9352 32.8756 93.2095 33.0482 93.4261 33.2682C93.6428 33.4881 93.8041 33.743 93.9079 34.0308C94.0116 34.3206 94.0646 34.629 94.0646 34.9558V35.6773C94.0646 35.9919 94.0116 36.2879 93.9079 36.5654C93.8041 36.8449 93.6428 37.0875 93.4261 37.2972C93.2095 37.5068 92.9352 37.6713 92.601 37.7946C92.2691 37.9159 91.8773 37.9776 91.4279 37.9776C90.9784 37.9776 90.5751 37.9159 90.2432 37.7946C89.9113 37.6733 89.637 37.5068 89.425 37.2972C89.2129 37.0875 89.0539 36.8449 88.9479 36.5654C88.8442 36.2858 88.7911 35.9898 88.7911 35.6773V34.9558ZM90.1602 35.6876C90.1602 36.072 90.2731 36.368 90.4967 36.5756C90.7203 36.7853 91.0314 36.8902 91.4256 36.8902C91.8197 36.8902 92.1285 36.7853 92.3544 36.5756C92.578 36.366 92.6909 36.07 92.6909 35.6876V34.9353C92.6909 34.518 92.578 34.1994 92.3544 33.9835C92.1308 33.7677 91.8197 33.6587 91.4256 33.6587C91.0314 33.6587 90.7203 33.7677 90.4967 33.9835C90.2731 34.1994 90.1602 34.5159 90.1602 34.9353V35.6876ZM91.5408 31.7984C91.4486 31.8334 91.3426 31.8251 91.2227 31.7717C91.1029 31.7203 91.0107 31.6381 90.9508 31.525C90.8885 31.414 90.8793 31.303 90.9208 31.1961C90.9623 31.0872 91.0268 31.0173 91.1121 30.9823L92.7485 30.1971C92.9122 30.1334 93.062 30.1395 93.2003 30.2135C93.3386 30.2875 93.4423 30.3862 93.5068 30.5116C93.5737 30.637 93.5921 30.7686 93.5644 30.9083C93.5368 31.0481 93.4423 31.1488 93.2809 31.2126L91.5385 31.7984H91.5408Z" fill="#575756"/>
<path d="M98.0104 33.7019C97.8399 33.7019 97.6855 33.7122 97.5472 33.7327C97.4089 33.7533 97.289 33.7965 97.1922 33.8581C97.0954 33.9198 97.0217 34.0123 96.971 34.1295C96.9202 34.2487 96.8949 34.4008 96.8949 34.5899V37.5068C96.8949 37.6322 96.835 37.7453 96.7151 37.846C96.5953 37.9467 96.4339 37.9981 96.2334 37.9981C96.0329 37.9981 95.8554 37.9467 95.7287 37.846C95.6019 37.7453 95.5374 37.6322 95.5374 37.5068V34.631C95.5374 33.9691 95.7356 33.4573 96.1297 33.0996C96.5238 32.7399 97.1507 32.561 98.0104 32.561C98.4046 32.561 98.7042 32.6309 98.9093 32.7707C99.1144 32.9105 99.1928 33.1058 99.1467 33.3566C99.1237 33.482 99.073 33.5703 98.9946 33.6238C98.9162 33.6772 98.824 33.7081 98.7157 33.7183C98.6074 33.7286 98.4921 33.7286 98.3677 33.7183C98.2432 33.7081 98.1234 33.7019 98.0081 33.7019H98.0104Z" fill="#575756"/>
<path d="M99.8796 34.8407C99.8796 34.5262 99.928 34.2322 100.025 33.9568C100.122 33.6813 100.274 33.4388 100.484 33.2291C100.693 33.0194 100.961 32.857 101.286 32.7378C101.611 32.6186 102.002 32.561 102.459 32.561C102.853 32.561 103.194 32.6083 103.48 32.7029C103.766 32.7974 103.998 32.9249 104.176 33.0852C104.277 33.1757 104.33 33.2887 104.339 33.4244C104.346 33.5601 104.314 33.6813 104.24 33.7841C104.167 33.889 104.054 33.9609 103.904 34.0041C103.752 34.0452 103.57 34.0185 103.353 33.9198C103.238 33.8643 103.109 33.8129 102.97 33.7677C102.832 33.7225 102.662 33.6998 102.459 33.6998C102.055 33.6998 101.753 33.8088 101.553 34.0246C101.352 34.2405 101.251 34.5344 101.251 34.9024V35.6547C101.251 36.0247 101.352 36.3166 101.553 36.5325C101.753 36.7483 102.055 36.8573 102.459 36.8573C102.659 36.8573 102.841 36.8388 103.005 36.7997C103.169 36.7606 103.295 36.7175 103.388 36.6681C103.551 36.5921 103.703 36.5654 103.846 36.59C103.989 36.6147 104.104 36.6702 104.19 36.7565C104.275 36.8429 104.326 36.9477 104.339 37.071C104.356 37.1923 104.312 37.3177 104.213 37.4431C104.065 37.624 103.832 37.7617 103.51 37.8563C103.189 37.9508 102.839 37.9981 102.459 37.9981C102.002 37.9981 101.611 37.9385 101.286 37.8213C100.961 37.7021 100.693 37.5397 100.484 37.3301C100.274 37.1204 100.122 36.8778 100.025 36.6024C99.928 36.3269 99.8796 36.033 99.8796 35.7185V34.8407Z" fill="#575756"/>
<path d="M105.614 31.1776C105.614 31.0522 105.679 30.9412 105.805 30.8405C105.932 30.7398 106.1 30.6904 106.31 30.6904C106.52 30.6904 106.672 30.7398 106.792 30.8405C106.912 30.9412 106.972 31.0522 106.972 31.1776V31.4263C106.972 31.5517 106.912 31.6627 106.792 31.7635C106.672 31.8642 106.511 31.9135 106.31 31.9135C106.11 31.9135 105.932 31.8642 105.805 31.7635C105.679 31.6627 105.614 31.5517 105.614 31.4263V31.1776ZM105.614 33.0544C105.614 32.929 105.679 32.8159 105.805 32.7152C105.932 32.6145 106.1 32.5631 106.31 32.5631C106.52 32.5631 106.672 32.6145 106.792 32.7152C106.912 32.8159 106.972 32.929 106.972 33.0544V37.5089C106.972 37.6343 106.912 37.7473 106.792 37.8481C106.672 37.9488 106.511 38.0002 106.31 38.0002C106.11 38.0002 105.932 37.9488 105.805 37.8481C105.679 37.7473 105.614 37.6343 105.614 37.5089V33.0544Z" fill="#575756"/>
<path d="M108.527 34.9558C108.527 34.629 108.58 34.3206 108.684 34.0308C108.788 33.741 108.947 33.4861 109.161 33.2682C109.376 33.0503 109.647 32.8755 109.979 32.7502C110.311 32.6248 110.708 32.561 111.164 32.561C111.62 32.561 112.003 32.6248 112.337 32.7502C112.671 32.8755 112.946 33.0482 113.162 33.2682C113.379 33.4881 113.54 33.743 113.644 34.0308C113.748 34.3206 113.801 34.629 113.801 34.9558V35.6773C113.801 35.9918 113.748 36.2879 113.644 36.5654C113.54 36.8449 113.379 37.0875 113.162 37.2972C112.946 37.5068 112.671 37.6713 112.337 37.7946C112.005 37.9159 111.614 37.9776 111.164 37.9776C110.715 37.9776 110.311 37.9159 109.979 37.7946C109.647 37.6733 109.373 37.5068 109.161 37.2972C108.949 37.0875 108.79 36.8449 108.684 36.5654C108.58 36.2858 108.527 35.9898 108.527 35.6773V34.9558ZM109.896 35.6876C109.896 36.072 110.009 36.368 110.233 36.5756C110.456 36.7853 110.768 36.8902 111.162 36.8902C111.556 36.8902 111.865 36.7853 112.091 36.5756C112.314 36.366 112.427 36.07 112.427 35.6876V34.9353C112.427 34.518 112.314 34.1994 112.091 33.9835C111.867 33.7677 111.556 33.6587 111.162 33.6587C110.768 33.6587 110.456 33.7677 110.233 33.9835C110.009 34.1994 109.896 34.5159 109.896 34.9353V35.6876Z" fill="#575756"/>
<path d="M123.006 34.6847C123.006 35.0115 122.937 35.2417 122.796 35.3753C122.658 35.5069 122.425 35.5747 122.1 35.5747H119.348V35.8461C119.348 36.1811 119.464 36.4484 119.692 36.6519C119.92 36.8533 120.243 36.9561 120.662 36.9561C120.872 36.9561 121.063 36.9438 121.236 36.9191C121.411 36.8944 121.547 36.8616 121.649 36.8204C121.757 36.7711 121.861 36.7238 121.962 36.6745C122.064 36.6252 122.156 36.6005 122.241 36.6005C122.395 36.6005 122.515 36.6416 122.601 36.7259C122.686 36.8102 122.732 36.9171 122.739 37.0507C122.739 37.1617 122.684 37.2747 122.575 37.3857C122.467 37.4967 122.319 37.5995 122.135 37.69C121.948 37.7804 121.729 37.8565 121.478 37.914C121.227 37.9736 120.957 38.0024 120.671 38.0024C120.277 38.0024 119.918 37.9469 119.593 37.8359C119.268 37.7249 118.987 37.5748 118.752 37.3857C118.516 37.1966 118.332 36.9767 118.201 36.7218C118.069 36.4669 118.002 36.1976 118.002 35.9119V34.8039C118.002 34.4976 118.067 34.2078 118.194 33.9364C118.321 33.6651 118.498 33.4266 118.722 33.2252C118.945 33.0237 119.212 32.8634 119.524 32.7442C119.832 32.6249 120.174 32.5674 120.545 32.5674C120.985 32.5674 121.361 32.6311 121.672 32.7606C121.981 32.8901 122.234 33.0566 122.432 33.2622C122.631 33.4677 122.776 33.6959 122.868 33.9467C122.96 34.1975 123.006 34.4442 123.006 34.6888V34.6847ZM120.533 33.5767C120.185 33.5767 119.909 33.6754 119.703 33.8748C119.498 34.0741 119.381 34.3373 119.348 34.6641H121.718V34.5079C121.718 34.2221 121.607 33.996 121.386 33.8275C121.165 33.661 120.881 33.5767 120.533 33.5767Z" fill="#575756"/>
<path d="M127.498 31.1776C127.498 31.0522 127.563 30.9412 127.69 30.8405C127.816 30.7398 127.985 30.6904 128.194 30.6904C128.404 30.6904 128.556 30.7398 128.676 30.8405C128.796 30.9412 128.856 31.0522 128.856 31.1776V31.4263C128.856 31.5517 128.796 31.6627 128.676 31.7635C128.556 31.8642 128.395 31.9135 128.194 31.9135C127.994 31.9135 127.816 31.8642 127.69 31.7635C127.563 31.6627 127.498 31.5517 127.498 31.4263V31.1776ZM127.498 33.0544C127.498 32.929 127.563 32.8159 127.69 32.7152C127.816 32.6145 127.985 32.5631 128.194 32.5631C128.404 32.5631 128.556 32.6145 128.676 32.7152C128.796 32.8159 128.856 32.929 128.856 33.0544V37.5089C128.856 37.6343 128.796 37.7473 128.676 37.8481C128.556 37.9488 128.395 38.0002 128.194 38.0002C127.994 38.0002 127.816 37.9488 127.69 37.8481C127.563 37.7473 127.498 37.6343 127.498 37.5089V33.0544Z" fill="#575756"/>
<path d="M133.166 32.561C133.592 32.561 133.966 32.6124 134.286 32.7173C134.606 32.8221 134.876 32.9701 135.093 33.1613C135.309 33.3524 135.473 33.5847 135.581 33.8561C135.69 34.1274 135.745 34.4275 135.745 34.7564V37.5068C135.745 37.6322 135.678 37.7453 135.547 37.846C135.415 37.9467 135.249 37.9981 135.047 37.9981C134.844 37.9981 134.682 37.9467 134.558 37.846C134.434 37.7453 134.371 37.6322 134.371 37.5068V34.8202C134.371 34.4378 134.256 34.1541 134.028 33.9732C133.8 33.7923 133.512 33.7019 133.164 33.7019C132.816 33.7019 132.525 33.7923 132.292 33.9732C132.06 34.1541 131.944 34.4378 131.944 34.8202V37.5068C131.944 37.6322 131.884 37.7453 131.765 37.846C131.645 37.9467 131.483 37.9981 131.283 37.9981C131.082 37.9981 130.905 37.9467 130.778 37.846C130.651 37.7453 130.587 37.6322 130.587 37.5068V34.8613C130.587 34.5344 130.64 34.2281 130.75 33.9465C130.859 33.6649 131.02 33.4203 131.239 33.2147C131.456 33.0092 131.725 32.8488 132.046 32.7337C132.366 32.6186 132.739 32.561 133.166 32.561Z" fill="#575756"/>
<path d="M140.433 37.5602C140.394 37.6794 140.306 37.7822 140.166 37.8685C140.027 37.9549 139.864 38.0001 139.677 38.0001C139.49 38.0001 139.32 37.9569 139.184 37.8685C139.048 37.7822 138.96 37.6794 138.923 37.5602L137.054 33.2311C137.015 33.1118 137.038 32.9885 137.123 32.859C137.209 32.7295 137.356 32.6411 137.564 32.5918C137.757 32.5507 137.93 32.563 138.08 32.6329C138.23 32.7028 138.326 32.7973 138.363 32.9145L139.675 36.4707L140.975 32.9145C141.021 32.7953 141.12 32.7028 141.27 32.6329C141.422 32.563 141.59 32.5486 141.774 32.5918C141.984 32.6411 142.132 32.7295 142.222 32.859C142.311 32.9885 142.337 33.1118 142.298 33.2311L140.428 37.5602H140.433Z" fill="#575756"/>
<path d="M148.422 34.6847C148.422 35.0115 148.352 35.2417 148.212 35.3753C148.073 35.5069 147.841 35.5747 147.516 35.5747H144.764V35.8461C144.764 36.1811 144.879 36.4484 145.107 36.6519C145.335 36.8533 145.658 36.9561 146.077 36.9561C146.287 36.9561 146.479 36.9438 146.651 36.9191C146.827 36.8944 146.963 36.8616 147.064 36.8204C147.172 36.7711 147.276 36.7238 147.377 36.6745C147.479 36.6252 147.571 36.6005 147.656 36.6005C147.811 36.6005 147.931 36.6416 148.016 36.7259C148.101 36.8102 148.147 36.9171 148.154 37.0507C148.154 37.1617 148.099 37.2747 147.991 37.3857C147.882 37.4967 147.735 37.5995 147.55 37.69C147.364 37.7804 147.145 37.8565 146.893 37.914C146.642 37.9736 146.373 38.0024 146.087 38.0024C145.693 38.0024 145.333 37.9469 145.008 37.8359C144.683 37.7249 144.402 37.5748 144.167 37.3857C143.932 37.1966 143.747 36.9767 143.616 36.7218C143.485 36.4669 143.418 36.1976 143.418 35.9119V34.8039C143.418 34.4976 143.482 34.2078 143.609 33.9364C143.736 33.6651 143.913 33.4266 144.137 33.2252C144.36 33.0237 144.628 32.8634 144.939 32.7442C145.248 32.6249 145.589 32.5674 145.96 32.5674C146.4 32.5674 146.776 32.6311 147.087 32.7606C147.396 32.8901 147.649 33.0566 147.848 33.2622C148.046 33.4677 148.191 33.6959 148.283 33.9467C148.375 34.1975 148.422 34.4442 148.422 34.6888V34.6847ZM145.948 33.5767C145.6 33.5767 145.324 33.6754 145.119 33.8748C144.914 34.0741 144.796 34.3373 144.764 34.6641H147.133V34.5079C147.133 34.2221 147.022 33.996 146.801 33.8275C146.58 33.661 146.296 33.5767 145.948 33.5767Z" fill="#575756"/>
<path d="M149.664 37.2457C149.641 37.2046 149.625 37.1511 149.618 37.0894C149.611 37.0257 149.618 36.964 149.636 36.9003C149.655 36.8366 149.687 36.779 149.728 36.7235C149.77 36.668 149.83 36.6269 149.908 36.5981C150.016 36.557 150.111 36.5344 150.192 36.5344C150.272 36.5344 150.344 36.5468 150.406 36.5714C150.468 36.5961 150.526 36.6269 150.581 36.666C150.634 36.705 150.689 36.74 150.745 36.7749C150.968 36.9291 151.321 37.0052 151.8 37.0052C152.049 37.0052 152.248 36.9558 152.397 36.8592C152.549 36.7626 152.623 36.6331 152.623 36.4728C152.623 36.3124 152.554 36.185 152.413 36.0904C152.275 35.9959 152.098 35.9157 151.886 35.8499C151.674 35.7841 151.445 35.7183 151.201 35.6505C150.957 35.5847 150.729 35.4943 150.517 35.3792C150.305 35.2641 150.127 35.1161 149.989 34.9352C149.851 34.7543 149.779 34.5096 149.779 34.2034C149.779 33.7162 149.968 33.3195 150.348 33.0173C150.726 32.713 151.25 32.563 151.916 32.563C152.211 32.563 152.464 32.5856 152.683 32.6308C152.9 32.676 153.08 32.7295 153.222 32.7932C153.365 32.8569 153.478 32.9248 153.559 32.9967C153.64 33.0707 153.697 33.1386 153.727 33.2002C153.78 33.2989 153.803 33.412 153.792 33.5394C153.78 33.6689 153.72 33.7676 153.612 33.8375C153.458 33.9279 153.315 33.9567 153.183 33.9259C153.052 33.895 152.932 33.8519 152.824 33.7943C152.762 33.7676 152.662 33.7265 152.526 33.6751C152.39 33.6237 152.188 33.597 151.918 33.597C151.669 33.597 151.482 33.6504 151.356 33.7594C151.229 33.8683 151.164 34.0019 151.164 34.1623C151.164 34.2938 151.231 34.3966 151.367 34.4706C151.503 34.5446 151.674 34.6104 151.879 34.67C152.084 34.7296 152.305 34.7913 152.547 34.8591C152.787 34.9249 153.01 35.0194 153.216 35.1407C153.421 35.262 153.591 35.4244 153.727 35.6279C153.863 35.8294 153.93 36.0925 153.93 36.4111C153.93 36.8983 153.741 37.2868 153.361 37.5725C152.98 37.8582 152.462 38.0021 151.805 38.0021C151.565 38.0021 151.33 37.9836 151.102 37.9446C150.874 37.9055 150.664 37.8521 150.475 37.7822C150.286 37.7123 150.12 37.6321 149.982 37.5417C149.844 37.4512 149.738 37.3526 149.668 37.2498L149.664 37.2457Z" fill="#575756"/>
<path d="M155.689 32.6661V31.5889C155.689 31.4636 155.751 31.3505 155.875 31.2498C156 31.149 156.17 31.0977 156.387 31.0977C156.588 31.0977 156.749 31.149 156.869 31.2498C156.989 31.3505 157.049 31.4636 157.049 31.5889V32.6661H157.908C158.04 32.6661 158.155 32.7093 158.256 32.7976C158.358 32.884 158.408 32.9991 158.408 33.1368C158.408 33.291 158.358 33.4102 158.256 33.4966C158.155 33.5829 158.04 33.6281 157.908 33.6281H157.049V36.1586C157.049 36.4505 157.09 36.6499 157.175 36.7547C157.261 36.8595 157.385 36.9109 157.546 36.9109C157.708 36.9109 157.832 36.8986 157.94 36.8739C158.049 36.8493 158.173 36.8369 158.312 36.8369C158.489 36.8369 158.618 36.8801 158.701 36.9685C158.782 37.0548 158.823 37.1761 158.823 37.3282C158.823 37.4598 158.784 37.5687 158.708 37.653C158.63 37.7373 158.528 37.8051 158.401 37.8565C158.275 37.9079 158.127 37.9449 157.961 37.9654C157.795 37.986 157.618 37.9963 157.433 37.9963C156.83 37.9963 156.389 37.8544 156.11 37.5728C155.832 37.2912 155.693 36.804 155.693 36.1133V33.624H155.23C155.099 33.624 154.981 33.5808 154.882 33.4924C154.781 33.4061 154.732 33.2848 154.732 33.1327C154.732 32.9929 154.783 32.8799 154.882 32.7935C154.983 32.7072 155.099 32.662 155.23 32.662H155.693L155.689 32.6661Z" fill="#575756"/>
<path d="M160.218 31.1776C160.218 31.0522 160.282 30.9412 160.409 30.8405C160.536 30.7398 160.704 30.6904 160.914 30.6904C161.123 30.6904 161.276 30.7398 161.395 30.8405C161.515 30.9412 161.575 31.0522 161.575 31.1776V31.4263C161.575 31.5517 161.515 31.6627 161.395 31.7635C161.276 31.8642 161.114 31.9135 160.914 31.9135C160.713 31.9135 160.536 31.8642 160.409 31.7635C160.282 31.6627 160.218 31.5517 160.218 31.4263V31.1776ZM160.218 33.0544C160.218 32.929 160.282 32.8159 160.409 32.7152C160.536 32.6145 160.704 32.5631 160.914 32.5631C161.123 32.5631 161.276 32.6145 161.395 32.7152C161.515 32.8159 161.575 32.929 161.575 33.0544V37.5089C161.575 37.6343 161.515 37.7473 161.395 37.8481C161.276 37.9488 161.114 38.0002 160.914 38.0002C160.713 38.0002 160.536 37.9488 160.409 37.8481C160.282 37.7473 160.218 37.6343 160.218 37.5089V33.0544Z" fill="#575756"/>
<path d="M169.216 32.5713C169.665 32.5713 170.036 32.6288 170.331 32.744C170.626 32.8591 170.857 33.0194 171.027 33.225C171.198 33.4305 171.318 33.6752 171.387 33.9568C171.456 34.2384 171.491 34.5447 171.491 34.8715V37.5068C171.491 37.6322 171.428 37.7453 171.304 37.846C171.179 37.9467 171.009 37.9981 170.792 37.9981C170.599 37.9981 170.442 37.9467 170.322 37.846C170.202 37.7453 170.142 37.6322 170.142 37.5068V34.8304C170.142 34.4481 170.064 34.1644 169.905 33.9835C169.746 33.8026 169.476 33.7122 169.098 33.7122C168.425 33.7122 168.089 34.0842 168.089 34.8304V37.55L168.066 37.6445L168.043 37.6754C168.036 37.6898 168.029 37.7021 168.024 37.7124C168.02 37.7226 168.01 37.735 167.996 37.7494C167.941 37.8193 167.87 37.8768 167.775 37.922C167.683 37.9673 167.575 37.994 167.45 38.0002H167.393C167.215 38.0002 167.068 37.9611 166.952 37.885C166.837 37.809 166.763 37.7144 166.731 37.6034L166.72 37.5829V34.8325C166.72 34.0863 166.383 33.7142 165.71 33.7142C165.323 33.7142 165.051 33.8047 164.896 33.9855C164.742 34.1664 164.664 34.4501 164.664 34.8325V37.5089C164.664 37.6343 164.604 37.7473 164.484 37.848C164.364 37.9488 164.203 38.0002 164.002 38.0002C163.802 38.0002 163.624 37.9488 163.497 37.848C163.371 37.7473 163.306 37.6343 163.306 37.5089V34.8736C163.306 34.5467 163.341 34.2404 163.41 33.9588C163.479 33.6772 163.601 33.4326 163.776 33.227C163.952 33.0215 164.184 32.8611 164.479 32.746C164.774 32.6309 165.145 32.5733 165.595 32.5733C166.044 32.5733 166.413 32.6473 166.703 32.7974C166.994 32.9475 167.224 33.1448 167.395 33.3874C167.572 33.1427 167.805 32.9475 168.091 32.7974C168.377 32.6473 168.752 32.5733 169.218 32.5733L169.216 32.5713Z" fill="#575756"/>
<path d="M177.912 34.6847C177.912 35.0115 177.843 35.2417 177.702 35.3753C177.564 35.5069 177.331 35.5747 177.006 35.5747H174.254V35.8461C174.254 36.1811 174.369 36.4484 174.597 36.6519C174.826 36.8533 175.148 36.9561 175.568 36.9561C175.777 36.9561 175.969 36.9438 176.142 36.9191C176.317 36.8944 176.453 36.8616 176.554 36.8204C176.663 36.7711 176.766 36.7238 176.868 36.6745C176.969 36.6252 177.061 36.6005 177.147 36.6005C177.301 36.6005 177.421 36.6416 177.506 36.7259C177.591 36.8102 177.637 36.9171 177.644 37.0507C177.644 37.1617 177.589 37.2747 177.481 37.3857C177.372 37.4967 177.225 37.5995 177.041 37.69C176.854 37.7804 176.635 37.8565 176.384 37.914C176.132 37.9736 175.863 38.0024 175.577 38.0024C175.183 38.0024 174.823 37.9469 174.498 37.8359C174.173 37.7249 173.892 37.5748 173.657 37.3857C173.422 37.1966 173.238 36.9767 173.106 36.7218C172.975 36.4669 172.908 36.1976 172.908 35.9119V34.8039C172.908 34.4976 172.972 34.2078 173.099 33.9364C173.226 33.6651 173.403 33.4266 173.627 33.2252C173.851 33.0237 174.118 32.8634 174.429 32.7442C174.738 32.6249 175.079 32.5674 175.45 32.5674C175.89 32.5674 176.266 32.6311 176.577 32.7606C176.886 32.8901 177.14 33.0566 177.338 33.2622C177.536 33.4677 177.681 33.6959 177.773 33.9467C177.866 34.1975 177.912 34.4442 177.912 34.6888V34.6847ZM175.439 33.5767C175.091 33.5767 174.814 33.6754 174.609 33.8748C174.404 34.0741 174.286 34.3373 174.254 34.6641H176.623V34.5079C176.623 34.2221 176.513 33.996 176.291 33.8275C176.07 33.661 175.787 33.5767 175.439 33.5767Z" fill="#575756"/>
<path d="M181.904 32.561C182.33 32.561 182.703 32.6124 183.024 32.7173C183.344 32.8221 183.614 32.9701 183.831 33.1613C184.047 33.3524 184.211 33.5847 184.319 33.8561C184.427 34.1274 184.483 34.4275 184.483 34.7564V37.5068C184.483 37.6322 184.416 37.7453 184.285 37.846C184.153 37.9467 183.987 37.9981 183.784 37.9981C183.582 37.9981 183.42 37.9467 183.296 37.846C183.171 37.7453 183.109 37.6322 183.109 37.5068V34.8202C183.109 34.4378 182.994 34.1541 182.766 33.9732C182.538 33.7923 182.249 33.7019 181.901 33.7019C181.553 33.7019 181.263 33.7923 181.03 33.9732C180.797 34.1541 180.682 34.4378 180.682 34.8202V37.5068C180.682 37.6322 180.622 37.7453 180.502 37.846C180.383 37.9467 180.221 37.9981 180.021 37.9981C179.82 37.9981 179.643 37.9467 179.516 37.846C179.389 37.7453 179.325 37.6322 179.325 37.5068V34.8613C179.325 34.5344 179.378 34.2281 179.488 33.9465C179.597 33.6649 179.758 33.4203 179.977 33.2147C180.194 33.0092 180.463 32.8488 180.784 32.7337C181.104 32.6186 181.477 32.561 181.904 32.561Z" fill="#575756"/>
<path d="M186.479 32.6661V31.5889C186.479 31.4636 186.541 31.3505 186.666 31.2498C186.79 31.149 186.961 31.0977 187.177 31.0977C187.378 31.0977 187.539 31.149 187.659 31.2498C187.779 31.3505 187.839 31.4636 187.839 31.5889V32.6661H188.698C188.83 32.6661 188.945 32.7093 189.046 32.7976C189.148 32.884 189.199 32.9991 189.199 33.1368C189.199 33.291 189.148 33.4102 189.046 33.4966C188.945 33.5829 188.83 33.6281 188.698 33.6281H187.839V36.1586C187.839 36.4505 187.88 36.6499 187.965 36.7547C188.051 36.8595 188.175 36.9109 188.337 36.9109C188.498 36.9109 188.622 36.8986 188.731 36.8739C188.839 36.8493 188.963 36.8369 189.102 36.8369C189.279 36.8369 189.408 36.8801 189.491 36.9685C189.572 37.0548 189.613 37.1761 189.613 37.3282C189.613 37.4598 189.574 37.5687 189.498 37.653C189.42 37.7373 189.318 37.8051 189.192 37.8565C189.065 37.9079 188.917 37.9449 188.751 37.9654C188.585 37.986 188.408 37.9963 188.224 37.9963C187.62 37.9963 187.18 37.8544 186.901 37.5728C186.622 37.2912 186.483 36.804 186.483 36.1133V33.624H186.02C185.889 33.624 185.771 33.5808 185.672 33.4924C185.571 33.4061 185.522 33.2848 185.522 33.1327C185.522 32.9929 185.573 32.8799 185.672 32.7935C185.774 32.7072 185.889 32.662 186.02 32.662H186.483L186.479 32.6661Z" fill="#575756"/>
<path d="M190.717 34.9558C190.717 34.629 190.77 34.3206 190.874 34.0308C190.978 33.741 191.137 33.4861 191.351 33.2682C191.566 33.0503 191.838 32.8755 192.169 32.7502C192.501 32.6248 192.898 32.561 193.354 32.561C193.81 32.561 194.193 32.6248 194.527 32.7502C194.861 32.8755 195.136 33.0482 195.352 33.2682C195.569 33.4881 195.73 33.743 195.834 34.0308C195.938 34.3206 195.991 34.629 195.991 34.9558V35.6773C195.991 35.9918 195.938 36.2879 195.834 36.5654C195.73 36.8449 195.569 37.0875 195.352 37.2972C195.136 37.5068 194.861 37.6713 194.527 37.7946C194.195 37.9159 193.804 37.9776 193.354 37.9776C192.905 37.9776 192.501 37.9159 192.169 37.7946C191.838 37.6733 191.563 37.5068 191.351 37.2972C191.139 37.0875 190.98 36.8449 190.874 36.5654C190.77 36.2858 190.717 35.9898 190.717 35.6773V34.9558ZM192.086 35.6876C192.086 36.072 192.199 36.368 192.423 36.5756C192.647 36.7853 192.958 36.8902 193.352 36.8902C193.746 36.8902 194.055 36.7853 194.281 36.5756C194.504 36.366 194.617 36.07 194.617 35.6876V34.9353C194.617 34.518 194.504 34.1994 194.281 33.9835C194.057 33.7677 193.746 33.6587 193.352 33.6587C192.958 33.6587 192.647 33.7677 192.423 33.9835C192.199 34.1994 192.086 34.5159 192.086 34.9353V35.6876Z" fill="#575756"/>
</g>
<defs>
<clipPath id="clip0_228_15">
<rect width="196" height="38" fill="white"/>
</clipPath>
</defs>
</svg>
