<svg width="83" height="50" viewBox="0 0 83 50" fill="none" xmlns="http://www.w3.org/2000/svg">
<g clip-path="url(#clip0_228_5)">
<path d="M39.3356 0.0810547L0.0236206 33.9986H43.688L58.9776 20.7986V0.0869087H48.5908" fill="white"/>
<path d="M17.4924 18.9367L0.0375977 34.0059H17.4937V18.9356" fill="#009E59"/>
<path d="M33.8724 25.519L43.6903 33.9941L83.0002 0.0761261H39.3349L24.0424 13.2775V33.9886H34.4283L24.6262 25.5271L34.4266 17.0538H43.692L33.8565 25.5549L33.8716 25.5188" fill="#009E59"/>
<path d="M24.0447 42.1563H26.4379V45.5085L29.218 42.1563H31.8995L28.5966 45.7205L32.2381 49.9126H29.2617L26.4343 46.3153V49.9126H24.0399V42.1557H24.0423L24.0449 42.1553L24.0447 42.1563ZM32.8967 41.5291H35.1784V49.913H32.896V41.5296L32.8967 41.5297V41.5291ZM40.6025 47.2979C39.9325 47.2979 39.4499 47.3614 39.1547 47.4864C38.8592 47.6102 38.7126 47.8133 38.7126 48.0896C38.7126 48.2888 38.7913 48.4517 38.9494 48.5762C39.1074 48.6998 39.3165 48.7609 39.5776 48.7609C39.9918 48.7609 40.3298 48.6416 40.5933 48.4008C40.8556 48.1617 40.9877 47.8477 40.9877 47.4618V47.2979H40.6025ZM43.136 46.9062V49.9135H41.1584L41.1087 49.0194C40.8392 49.3496 40.5133 49.5933 40.1317 49.7471C39.7501 49.9024 39.2905 49.9779 38.7502 49.9779C38.0753 49.9779 37.5387 49.8131 37.1378 49.4813C36.738 49.1511 36.5369 48.7071 36.5369 48.1556C36.5369 47.5198 36.8288 47.0476 37.4091 46.7392C37.9923 46.4323 38.887 46.2785 40.0959 46.2785H40.9874V46.2026C40.9874 45.8881 40.8493 45.6476 40.5707 45.4811C40.2945 45.3136 39.888 45.2289 39.3574 45.2289C39.0976 45.2289 38.7978 45.2681 38.4664 45.3487C38.1334 45.4292 37.7748 45.5455 37.3931 45.6993L37.3544 44.4009C37.7245 44.2668 38.1259 44.1653 38.5573 44.1009C38.9886 44.0355 39.4646 44.0027 39.983 44.0027C41.0698 44.0027 41.8675 44.2361 42.3744 44.7038C42.8806 45.1724 43.1357 45.9054 43.1357 46.9068V46.9042L43.136 46.9062ZM48.4832 45.4523C48.0333 45.4523 47.6738 45.5899 47.4092 45.8672C47.143 46.1418 47.0108 46.5199 47.0108 46.993C47.0108 47.4759 47.1367 47.8553 47.3892 48.1283C47.6421 48.4014 47.9896 48.5383 48.431 48.5383C48.8497 48.5383 49.1814 48.404 49.4311 48.1371C49.6783 47.8687 49.803 47.5102 49.803 47.0646C49.803 46.5826 49.6795 46.194 49.4342 45.8978C49.1852 45.6002 48.8691 45.4519 48.4832 45.4519V45.4523ZM44.7285 41.5291H47.0108V44.9602C47.2748 44.6424 47.5881 44.4039 47.948 44.2474C48.3072 44.091 48.7249 44.0126 49.1975 44.0126C50.0903 44.0126 50.8027 44.2784 51.3351 44.8116C51.8672 45.3448 52.135 46.0614 52.135 46.9596C52.135 47.8689 51.8613 48.6025 51.3133 49.1623C50.7649 49.7211 50.0514 50 49.1707 50C48.6451 50 48.1774 49.8931 47.7657 49.6833C47.3554 49.4735 47.02 49.1655 46.7637 48.7611V49.913H44.7285V41.5286V41.5291ZM53.6063 44.1642H55.8882V49.913H53.6063V44.1648V44.1642ZM53.6063 41.5291H55.8882V43.1273H53.6063V41.5291ZM64.6062 46.5499V49.9129H62.3438V46.9601C62.3438 46.5087 62.2512 46.1721 62.0644 45.9518C61.8792 45.7326 61.5993 45.6217 61.2202 45.6217C60.824 45.6217 60.5085 45.7603 60.2689 46.0383C60.0319 46.3134 59.9131 46.6834 59.9131 47.1506V49.9128H57.6317V44.1651H59.7044V45.198C59.966 44.8118 60.304 44.5178 60.7173 44.3158C61.1285 44.1139 61.593 44.0123 62.1114 44.0123C62.9245 44.0123 63.5433 44.2288 63.9679 44.6588C64.3919 45.0914 64.6071 45.7221 64.6071 46.5509" fill="#222222"/>
</g>
<defs>
<clipPath id="clip0_228_5">
<rect width="83" height="50" fill="white"/>
</clipPath>
</defs>
</svg>
