<svg width="157" height="44" viewBox="0 0 157 44" fill="none" xmlns="http://www.w3.org/2000/svg">
<path d="M25.7583 20.2954L41.9062 8.31996C42.3296 7.9721 42.6844 7.59624 42.5181 7.04502C42.2092 6.02092 40.4748 6.36553 40.6696 4.94243C40.9781 4.08638 41.0349 2.98801 41.372 2.16037C41.5391 1.74959 41.9598 1.45897 42.4504 1.41919L61.8646 1.44882C62.6019 1.70251 62.8068 2.13195 62.6773 2.80941C62.5397 3.52989 62.3021 4.53896 62.0777 5.23671C62.0141 5.4352 61.9069 5.68037 61.7383 5.82649C61.3472 6.16461 60.0075 6.22956 59.4115 6.34524C57.8747 6.64236 56.3787 7.15705 55.0899 7.96358L38.932 19.9313L50.9982 34.5791C52.2057 35.9336 53.4809 37.4623 55.5042 37.8186C56.5504 38.0029 58.3817 37.6827 58.1822 39.2206C58.1032 39.8319 57.6989 41.4608 57.4686 42.0331C57.3309 42.3753 57.0824 42.5689 56.7044 42.6899C53.2315 42.7134 49.7003 42.8368 46.2214 42.7435C40.5906 42.5925 37.143 41.2177 33.6183 37.3218C30.2039 33.5481 27.7285 28.935 25.0391 24.7327C24.9601 24.6093 24.8751 24.4473 24.7593 24.354L22.1676 35.0479C22.0768 35.9535 22.6592 36.6975 23.4728 37.1728C24.2428 37.6226 25.4503 37.7164 25.3367 38.7725C25.224 39.8206 24.6762 41.0845 24.474 42.1419C24.2823 42.4995 23.8671 42.7317 23.4205 42.7431H1.47461C0.726403 42.6854 0.240775 42.2186 0.273029 41.5444C0.536513 40.6746 0.647358 39.7008 0.930376 38.8439C1.28472 37.7715 2.04382 38.0074 3.0178 37.746C6.08194 36.9236 7.03457 32.9437 7.65466 30.5237C9.35277 23.8977 10.821 17.2218 12.5168 10.5951C12.8539 9.20889 12.6858 7.75088 11.3266 6.86601C10.5035 6.33022 9.14744 6.3083 9.28009 5.10439C9.38048 4.19476 9.86202 3.11505 10.0165 2.19081C10.165 1.77029 10.6134 1.45815 11.1049 1.41797L32.3817 1.4476C32.9014 1.59657 33.2448 1.98623 33.2426 2.48266C32.9541 3.41177 32.856 4.51055 32.5239 5.41572C32.2491 6.16421 31.7185 6.12524 31.0289 6.39354C29.8087 6.86845 28.871 7.75088 28.5421 8.9207L25.7583 20.2945V20.2954Z" fill="#E4002B"/>
<path d="M81.9525 19.1993H96.5577C96.5932 19.1993 96.9334 19.3507 96.9861 19.3847C97.3245 19.6007 97.4985 20.0281 97.4386 20.3926L96.0135 26.141C95.8681 26.5977 95.402 26.8879 94.8782 26.9126H80.0009L78.2937 33.9319C77.9362 35.2954 78.5382 36.5176 79.8029 37.2949C80.5824 37.7738 81.4392 37.7763 81.3038 38.8539C81.178 39.8553 80.6887 40.9646 80.5311 41.979C80.3784 42.4425 79.9637 42.7023 79.4331 42.7433H61.985C61.2209 42.7076 60.7176 42.242 60.7889 41.5491L68.5962 9.80217C68.7238 8.36648 68.1664 7.24497 66.7354 6.55453C66.1549 6.27445 65.4571 6.22209 65.2563 5.5629C65.1255 5.13305 65.4194 4.28228 65.5302 3.81549C65.6411 3.3487 65.7506 2.79342 65.8937 2.35423C66.0617 1.83873 66.3997 1.48194 67.028 1.41943H106.1C106.689 1.44582 107.184 1.89921 107.199 2.42648C107.203 2.57382 107.137 2.7784 107.106 2.93061C106.424 6.29597 105.324 9.68526 104.572 13.0462C104.38 13.3936 103.985 13.6075 103.556 13.6404C102.585 13.7155 100.803 13.7094 99.8276 13.6404C99.4092 13.6108 99.0436 13.4456 98.8232 13.1172C98.5343 12.6861 98.7378 12.0464 98.7183 11.5467C98.6361 9.4336 97.4745 8.36242 95.1063 8.23903L84.6619 8.24593L81.953 19.2001L81.9525 19.1993Z" fill="#E4002B"/>
<path d="M136.411 0.782851C140.671 0.683405 144.826 1.02233 148.96 1.92709C150.167 2.19134 151.579 2.26359 151.407 3.70942C150.612 6.71108 149.953 9.74278 149.164 12.7457C148.966 13.4998 148.927 14.3616 147.845 14.4492C146.966 14.5207 145.131 14.5272 144.258 14.4492C142.839 14.3234 143.213 13.1045 143.144 12.2379C142.691 6.56374 134.121 6.93757 129.863 8.6509C122.078 11.7833 117.82 21.9272 121.376 28.8462C125.558 36.9802 137.999 36.4472 146.079 34.181C146.87 34.0731 147.525 34.6706 147.414 35.3736C146.95 37.0398 146.8 38.8745 146.318 40.5241C146.109 41.2438 145.693 41.3745 144.961 41.5843C142.556 42.2744 139.596 42.6961 137.079 42.9437C127.452 43.8915 115.64 43.2157 108.686 36.45C103.083 30.9988 102.899 23.5058 105.665 16.8234C110.528 5.07732 123.356 1.08728 136.411 0.782446V0.782851Z" fill="#E4002B"/>
</svg>
