<svg width="253" height="62" viewBox="0 0 253 62" fill="none" xmlns="http://www.w3.org/2000/svg">
<path d="M49.4915 37.8731V23.7221C49.4915 23.0697 49.7151 22.7535 50.6823 22.6272C52.4938 22.3959 54.7016 22.2695 56.7863 22.2695C62.0215 22.2695 65.569 23.9119 65.569 27.8076C65.569 31.0295 63.1621 33.6613 56.6619 33.6613H54.3794V37.8731C54.3794 38.3363 54.0816 38.589 53.5358 38.589H50.335C49.7892 38.589 49.4915 38.3363 49.4915 37.8731ZM56.7115 30.3551C59.391 30.3551 60.5812 29.6179 60.5812 27.9755C60.5812 26.3331 59.2911 25.5751 56.8848 25.5751C55.991 25.5751 55.0237 25.6593 54.3787 25.7856V30.3551H56.7108H56.7115Z" fill="#0000BE"/>
<path d="M67.0046 32.4606C67.0046 28.0803 70.4039 25.3223 75.8118 25.3223C78.0943 25.3223 81.0722 25.7855 82.4615 26.3751C82.9074 26.5441 83.057 26.7327 83.057 27.1337V37.8729C83.057 38.3362 82.7593 38.5889 82.2128 38.5889H79.0867C78.5409 38.5889 78.218 38.3362 78.218 37.8729V36.3142C77.2011 37.9566 75.5888 38.7988 73.3553 38.7988C69.559 38.7988 67.0039 36.2721 67.0039 32.4606H67.0046ZM75.1178 35.3035C76.3583 35.3035 77.4248 34.8403 78.2187 33.9138V29.0501C77.3996 28.7761 76.5323 28.6497 75.7377 28.6497C73.2567 28.6497 71.8177 29.9131 71.8177 32.0608C71.8177 34.0615 73.0827 35.3035 75.1178 35.3035Z" fill="#0000BE"/>
<path d="M86.6507 41.8108C86.3033 41.6417 86.0308 41.4525 86.3285 40.8208L86.8988 39.5361C87.1224 39.0308 87.4949 38.9258 88.0652 39.1571C89.6034 39.8095 91.0675 40.1049 92.9286 40.1049C95.6088 40.1049 97.0715 38.9684 97.0715 36.6938V35.641C96.0547 37.262 94.4424 37.8729 92.2088 37.8729C88.4377 37.8729 85.8574 35.4725 85.8574 32.1658C85.8574 28.0596 89.2812 25.3223 94.8142 25.3223C97.3944 25.3223 99.925 25.7855 101.315 26.3751C101.761 26.5441 101.911 26.7327 101.911 27.1337V36.4405C101.911 40.2941 99.0325 43.0107 93.524 43.0107C90.6216 43.0107 87.9415 42.5261 86.6513 41.8102L86.6507 41.8108ZM93.9699 34.7774C95.2104 34.7774 96.3014 34.3136 97.0709 33.4084V28.9445C96.2769 28.6705 95.4089 28.5655 94.5899 28.5655C92.1333 28.5655 90.6699 29.7873 90.6699 31.7661C90.6699 33.5561 91.96 34.7774 93.9699 34.7774Z" fill="#0000BE"/>
<path d="M105.131 33.8082V26.2487C105.131 25.7849 105.453 25.5322 106 25.5322H109.126C109.672 25.5322 109.969 25.7849 109.969 26.2487V32.7346C109.969 34.3557 110.838 35.1137 112.426 35.1137C113.666 35.1137 114.907 34.5876 115.602 33.7453V26.2493C115.602 25.7855 115.924 25.5328 116.47 25.5328H119.596C120.142 25.5328 120.44 25.7855 120.44 26.2493V37.8729C120.44 38.3362 120.142 38.5888 119.596 38.5888H116.47C115.899 38.5888 115.602 38.3362 115.602 37.8729V36.02C114.56 37.8308 112.798 38.7988 110.416 38.7988C107.017 38.7988 105.131 36.9251 105.131 33.8082Z" fill="#0000BE"/>
<path d="M131.625 25.3224C136.24 25.3224 139.142 27.6807 139.142 31.1552C139.142 32.2501 138.696 32.8605 137.778 32.8605H128.028C128.425 34.7769 129.938 35.8926 132.518 35.8926C133.883 35.8926 135.123 35.577 136.513 34.9655C137.059 34.7342 137.431 34.8398 137.655 35.3238L138.25 36.5872C138.523 37.2188 138.274 37.4294 137.927 37.5979C136.488 38.3559 134.329 38.7984 132.146 38.7984C126.812 38.7984 123.289 35.9347 123.289 31.9548C123.289 27.9749 126.688 25.3218 131.625 25.3218L131.625 25.3224ZM134.924 30.5449C134.652 29.0075 133.51 28.2073 131.624 28.2073C129.838 28.2073 128.498 28.9025 128.077 30.5449H134.924Z" fill="#0000BE"/>
<path d="M144.61 37.8731V23.2174C144.61 22.7541 144.932 22.5015 145.479 22.5015H150.143C150.639 22.5015 150.937 22.6907 151.136 23.0697L155.527 31.8504L159.869 23.0697C160.068 22.6693 160.415 22.5015 160.911 22.5015H165.377C165.922 22.5015 166.245 22.7541 166.245 23.2174V37.8731C166.245 38.3363 165.922 38.589 165.377 38.589H162.672C162.126 38.589 161.803 38.3363 161.803 37.8731V27.2394L157.858 34.9881C157.684 35.3665 157.337 35.5356 156.866 35.5356H154.063C153.566 35.5356 153.243 35.3665 153.07 34.9881L149.05 27.0917V37.8731C149.05 38.3363 148.728 38.589 148.182 38.589H145.478C144.931 38.589 144.609 38.3363 144.609 37.8731H144.61Z" fill="#0000BE"/>
<path d="M177.355 25.3224C181.971 25.3224 184.873 27.6807 184.873 31.1552C184.873 32.2501 184.426 32.8605 183.509 32.8605H173.758C174.155 34.7769 175.669 35.8926 178.248 35.8926C179.613 35.8926 180.854 35.577 182.243 34.9655C182.79 34.7342 183.162 34.8398 183.385 35.3238L183.981 36.5872C184.253 37.2188 184.005 37.4294 183.658 37.5979C182.219 38.3559 180.06 38.7984 177.877 38.7984C172.542 38.7984 169.019 35.9347 169.019 31.9548C169.019 27.9749 172.418 25.3218 177.356 25.3218L177.355 25.3224ZM180.655 30.5449C180.383 29.0075 179.241 28.2073 177.355 28.2073C175.569 28.2073 174.229 28.9025 173.808 30.5449H180.655Z" fill="#0000BE"/>
<path d="M187.624 37.8729V26.2493C187.624 25.7855 187.947 25.5328 188.493 25.5328H191.619C192.165 25.5328 192.462 25.7855 192.462 26.2493V28.1444C193.504 26.2914 195.266 25.3223 197.747 25.3223C201.27 25.3223 203.131 27.2802 203.131 30.3758V37.8724C203.131 38.3356 202.834 38.5883 202.287 38.5883H199.161C198.615 38.5883 198.292 38.3356 198.292 37.8724V31.4499C198.292 29.8289 197.424 29.0074 195.737 29.0074C194.423 29.0074 193.182 29.5341 192.462 30.3758V37.8724C192.462 38.3356 192.164 38.5883 191.618 38.5883H188.492C187.946 38.5883 187.623 38.3356 187.623 37.8724L187.624 37.8729Z" fill="#0000BE"/>
<path d="M205.657 31.9132C205.657 27.9546 209.032 25.3223 214.118 25.3223C219.203 25.3223 222.578 27.9546 222.578 31.9132C222.578 35.8717 219.055 38.7988 214.118 38.7988C209.18 38.7988 205.657 35.8931 205.657 31.9132ZM214.118 35.4725C216.301 35.4725 217.715 34.0188 217.715 31.9351C217.715 29.8514 216.376 28.6503 214.118 28.6503C211.859 28.6503 210.52 29.8929 210.52 31.9351C210.52 33.9773 211.96 35.4725 214.118 35.4725Z" fill="#0000BE"/>
<path d="M224.634 37.6207C224.137 37.3259 224.063 37.094 224.311 36.5673L224.882 35.3668C225.105 34.8614 225.527 34.7357 226.122 34.9664C227.636 35.6195 229.05 35.9142 230.886 35.9142C232.722 35.9142 233.466 35.5566 233.466 34.7564C233.466 34.0405 232.797 33.7457 230.092 33.346C226.469 32.7985 224.857 31.5559 224.931 29.366C225.03 26.8393 227.288 25.3232 231.257 25.3232C233.441 25.3232 235.599 25.7657 236.988 26.5237C237.534 26.7764 237.608 26.9241 237.336 27.5558L236.79 28.7563C236.541 29.2616 236.145 29.3666 235.524 29.1353C234.011 28.5457 232.448 28.2082 231.133 28.2082C229.718 28.2082 229.173 28.5451 229.173 29.1982C229.173 29.9141 229.868 30.2302 232.547 30.6087C236.046 31.0932 237.708 32.3987 237.708 34.6307C237.708 37.3259 235.326 38.7998 230.935 38.7998C228.454 38.7998 225.874 38.3158 224.633 37.6212L224.634 37.6207Z" fill="#0000BE"/>
<path d="M36.7412 41.435C31.3469 41.8723 25.9159 41.8723 20.5216 41.435C18.0385 41.2204 15.9477 39.3317 15.6969 37.2238C15.1552 32.6243 15.1552 28.128 15.6969 23.528C15.9477 21.4195 18.0379 19.5313 20.5216 19.3167C25.9159 18.8795 31.3469 18.8795 36.7412 19.3167C39.2242 19.5319 41.3151 21.4195 41.5659 23.528C42.1076 28.1275 42.1076 32.6243 41.5659 37.2238C41.3151 39.3323 39.2249 41.2204 36.7412 41.435Z" fill="#FF2342"/>
<path d="M37.6806 28.7072C37.6446 28.3657 37.2177 27.9977 36.7365 27.8961C35.515 27.6504 34.2901 27.4531 33.0673 27.3112C32.6357 27.261 32.3019 26.9777 32.2428 26.6114C32.0749 25.5736 31.8431 24.534 31.5542 23.498C31.4387 23.0901 30.9962 22.7278 30.5985 22.6967C29.2683 22.6044 27.9938 22.6044 26.6656 22.6967C26.2633 22.7272 25.8296 23.0895 25.71 23.498C25.4204 24.5346 25.1879 25.5742 25.02 26.612C24.9609 26.9783 24.6272 27.2615 24.1955 27.3117C22.9727 27.4542 21.7485 27.6509 20.527 27.8961C20.0465 27.9942 19.6189 28.3697 19.5829 28.7072C19.4742 29.8362 19.4742 30.9178 19.5829 32.0451C19.6189 32.3866 20.0458 32.7546 20.527 32.8562C21.7485 33.1019 22.9734 33.2992 24.1962 33.4411C24.6278 33.4913 24.9616 33.7746 25.0207 34.1409C25.1886 35.1787 25.4204 36.2177 25.7093 37.2538C25.8248 37.6616 26.2673 38.0239 26.665 38.055C27.9952 38.1473 29.2697 38.1473 30.5979 38.055C31.0003 38.0245 31.4339 37.6622 31.5536 37.2538C31.8431 36.2171 32.0756 35.1781 32.2428 34.1403C32.3019 33.774 32.6357 33.4907 33.0673 33.4405C34.2901 33.2981 35.515 33.1013 36.7358 32.8562C37.217 32.7581 37.6432 32.3825 37.6799 32.0451C37.7887 30.9161 37.7887 29.8344 37.6799 28.7072H37.6806Z" fill="white"/>
</svg>
