<svg width="69" height="50" viewBox="0 0 69 50" fill="none" xmlns="http://www.w3.org/2000/svg">
<g clip-path="url(#clip0_33_25)">
<path d="M25.0799 0.0288593C24.0012 0.0301325 23.7019 1.12235 23.1924 1.8459L19.8851 6.54262C19.624 6.91339 19.4488 7.18363 18.7861 7.38199C12.9883 9.11743 2.06287 12.4332 1.39249 12.5884C0.0728825 12.8935 -0.0386363 14.3268 1.91662 14.3268H67.536C68.7866 14.3268 69.2892 13.2544 68.6262 12.6727C68.3556 12.4352 54.506 7.61251 54.0503 7.45337C53.3011 7.19179 53.2601 7.09323 53.1175 6.46737L52.1391 2.17309C51.8766 1.02118 51.6401 -0.00229823 50.0985 -0.000485878L25.0799 0.0288593ZM26.5357 15.519C25.9685 15.6231 25.3425 15.8393 24.906 16.1743C22.7774 17.808 24.6374 20.0641 27.3173 19.5572C27.7828 19.4691 28.2327 19.2982 28.6113 19.0453C30.8788 17.5302 29.1956 15.0177 26.5357 15.5219M4.94029 19.1766C4.62331 20.0694 0.287634 31.8137 0.14579 32.1759C-0.229392 33.1332 0.167526 33.1936 1.17141 33.1803C2.93617 33.157 6.03726 33.1103 6.46567 33.1103C6.87693 33.1103 7.02651 32.554 7.1599 32.1771L10.9903 21.3521C11.2449 20.6325 11.5673 19.2533 12.5811 18.8084C13.5949 18.3635 14.4446 18.976 14.7735 19.7601C15.2171 20.8175 14.8208 21.9843 14.474 23.0226C14.1585 23.9672 13.4624 24.9948 12.4942 25.5368C11.6465 26.0114 10.8879 25.7207 10.7979 25.8485C10.1741 26.7333 11.1489 27.9354 11.9047 28.2735C12.6126 28.5901 14.9269 28.6737 16.4224 28.0771C19.3094 26.9255 21.0857 24.3066 21.1283 21.607C21.1831 18.1456 18.0014 16.7203 14.5675 16.7375C11.9168 16.7507 7.69747 16.7771 6.61537 16.7771C5.62183 16.7771 5.59349 17.3359 4.94003 19.1765L4.94029 19.1766ZM58.5158 30.0766C58.3847 30.4989 58.2597 30.959 58.186 31.1964C58.0082 31.7692 58.5413 31.6768 58.8344 31.6768H62.2674C62.8384 31.6768 62.9311 31.31 63.1848 30.6215L66.709 21.0573C66.8685 20.6245 66.6859 20.5472 65.3921 20.9865C64.637 21.2429 63.8794 21.7453 63.0697 21.4018C62.116 20.9972 61.5886 20.5381 60.4967 20.3896C57.2049 19.9419 53.883 21.9871 52.4156 24.4366C51.3829 26.1608 51.0509 27.7832 51.2524 29.7239C51.3487 30.652 52.0792 31.7788 53.2203 32.0138C55.3509 32.4527 57.2273 30.7308 58.2709 29.8304C58.4431 29.6818 58.5783 29.8755 58.5158 30.0766ZM23.5929 20.7253C23.0583 20.7253 22.9067 21.437 22.7562 21.839L19.413 30.7744C19.247 31.218 19.0588 31.6174 19.5636 31.6249L24.5722 31.6991C25.0253 31.7059 25.225 31.2904 25.3552 30.9388L28.3336 22.8934C28.9098 21.3373 29.4491 20.7252 28.3526 20.7252L23.5929 20.7253ZM26.9465 31.121C26.5087 31.5041 27.0572 31.5408 27.3436 31.4893C28.4673 31.2875 29.9295 31.4709 31.1567 32.0616C32.3367 32.6295 33.0628 33.6905 34.0021 34.4915C35.8658 36.081 38.4671 37.3734 41.1725 37.2637C42.2088 37.2216 43.1744 36.8183 43.9923 36.2725C44.2242 36.1177 44.8289 35.7757 44.7803 35.4776C44.7318 35.1795 44.023 35.2705 43.7818 35.2311C42.9735 35.0992 42.3471 34.7342 41.7787 34.2449C40.1625 32.8538 39.1597 31.1821 37.118 30.1669C35.6528 29.4384 34.7519 29.1092 32.7772 29.1092C32.5279 29.1092 32.4185 28.8731 33.1256 28.402L39.9857 23.8324C40.6816 23.3689 40.5721 23.3143 40.907 22.6021L41.5876 21.155C41.8049 20.693 41.1131 20.7357 40.5591 20.7357H32.2358C30.4941 20.7357 30.5011 20.6432 30.012 21.9869C30.012 21.9869 29.5247 23.3257 29.2811 23.995C29.1575 24.3347 28.9889 24.7001 29.5297 24.7001H33.5726C33.9869 24.7001 33.9181 25.0218 33.7515 25.1676L26.9465 31.121ZM45.5249 24.4508L39.6558 29.3809C39.3384 29.6475 39.4081 29.9029 39.6142 29.885C40.858 29.7767 41.9751 29.8953 43.1341 30.5149C44.1391 31.0522 44.7347 31.9265 45.5492 32.6383C47.3095 34.1765 50.0485 35.7027 52.7197 35.4114C54.6805 35.1977 54.8531 35.0291 55.5822 34.4C55.6758 34.3193 55.7253 34.1084 55.329 34.0963C51.7567 33.9872 51.2616 31.849 49.2519 30.0369C48.0121 28.919 46.3586 28.1446 44.5949 28.1446C44.0976 28.1446 44.1412 27.8872 44.7814 27.4546C45.8763 26.7146 50.2831 23.731 50.6672 23.4982C50.924 23.3425 51.2808 23.0253 51.5373 22.5429C51.7626 22.1192 52.0843 21.4643 52.2132 21.2717C52.45 20.9177 52.197 20.7247 51.77 20.7247H43.8469C43.1221 20.7247 43.0062 20.7795 42.8159 21.1976L41.7761 23.4826C41.6535 23.7522 41.5197 24.1493 41.9857 24.1493H45.4219C45.6635 24.1493 45.6519 24.3442 45.5249 24.4508ZM59.5292 21.4751C60.6406 21.2428 60.3658 22.7237 60.2821 23.2272C60.0258 24.7683 59.5852 26.2087 58.773 27.6146C58.5211 28.0508 58.1863 28.8237 57.5443 28.9139C56.5991 29.0467 56.7787 27.4234 56.8204 26.9453C56.9443 25.525 57.5142 24.0482 58.2577 22.7828C58.5288 22.3214 58.8871 21.61 59.5259 21.4779M4.37081 37.5137C3.76163 39.1609 4.77689 40.8546 6.77214 41.4125C7.22837 41.5401 8.95579 41.2032 8.78259 41.6803L6.14196 48.9541C5.80358 49.8862 6.33721 49.8598 7.11435 49.8598H12.2417C12.704 49.8598 12.9367 49.4001 13.0801 49.0232C13.7123 47.362 14.5416 44.9725 14.9063 44.0199C15.2684 43.0741 15.2346 42.4868 16.6216 42.6141C17.613 42.7052 17.9135 43.3499 17.8736 44.1486C17.8298 45.025 16.6712 47.6678 16.481 48.2206C16.0499 49.4739 15.6658 49.8643 17.1057 49.8643H21.5055C22.2323 49.8643 22.785 49.988 23.1348 49.0272L28.4489 34.4306C28.8418 33.3514 28.5122 33.4174 27.3224 33.4181L23.2518 33.4207C22.5954 33.4212 21.9704 33.3962 21.8119 33.8428L19.9935 38.967C19.7857 39.5525 19.5707 40.6311 18.7119 40.6688C17.757 40.7107 16.816 39.9615 16.7831 39.3382C16.7357 38.44 17.909 35.6624 18.3788 34.4533C18.5253 34.0763 18.8538 33.4442 18.103 33.4442H12.5181C11.6881 33.4442 11.6226 34.0934 11.4986 34.4364L10.5499 37.0599C10.3319 37.6627 10.1826 38.0265 9.56293 38.1698C9.0409 38.2905 6.79971 39.1543 5.73458 38.6236C4.6694 38.093 4.60832 36.8715 4.37081 37.5137ZM30.5691 35.4642L27.1792 44.3306C26.8549 45.1787 26.5982 46.1006 26.6628 47.0061C26.8764 50 31.835 50.4804 34.6279 49.3624C37.2566 48.3099 38.1067 45.3556 38.508 44.3898C38.7833 43.7272 40.3655 39.8443 40.4684 39.5128C40.6524 38.9202 39.9451 39.0138 39.4251 39.0138C38.8013 39.0138 37.9488 38.7784 37.5034 38.7638C37.0111 38.7478 36.7993 38.9629 36.7007 39.3214L34.848 46.0559C34.6021 46.9496 33.8776 47.6769 32.9297 47.4196C31.5064 47.0332 32.3235 45.0904 32.6645 44.2308L35.1105 38.0658C35.2643 37.678 34.2201 37.3239 33.653 36.9485C33.0859 36.573 32.3721 35.9691 31.8381 35.3434C31.3042 34.7177 31.0151 34.2981 30.5691 35.4644L30.5691 35.4642ZM46.911 36.2795C46.5021 36.8337 45.809 37.6632 45.1455 38.0751C44.0144 38.7772 42.4318 38.7986 42.1857 39.1666C42.1857 39.1666 41.5376 40.5006 41.5046 40.9758C41.4653 41.544 42.5477 40.962 42.7763 41.4205C42.9437 41.7565 42.1575 43.7826 42.1575 43.7826C41.7723 45.0395 41.1576 46.4092 41.46 47.7198C42.0115 50.1103 45.444 50.3937 47.4629 49.4602C48.0296 49.1982 48.8507 48.3628 49.2322 47.7925C49.4867 47.4123 48.8858 47.4347 48.4114 47.4347C48.0013 47.4347 47.6956 47.1425 47.5338 46.8243C46.9004 45.5788 48.1567 43.2545 48.5438 42.0079C48.8482 41.0273 50.0898 41.3082 51.0271 41.3082C51.8118 41.3082 52.1774 39.8024 52.243 39.1324C52.302 38.5295 50.4959 39.0802 49.9369 38.8017C49.4959 38.5819 50.2587 37.5522 50.1427 37.0966C50.0805 36.8522 49.5452 36.8217 49.2977 36.7564C48.7239 36.6051 48.0488 36.3307 47.5242 36.1221C47.4008 36.073 47.0463 36.0961 46.911 36.2795Z" fill="#EA1C24" fill-opacity="0.99608"/>
<path d="M26.5357 15.519C25.9685 15.6231 25.3425 15.8393 24.906 16.1743C22.7774 17.808 24.6374 20.0641 27.3173 19.5572C27.7828 19.4691 28.2328 19.2982 28.6113 19.0453C30.8788 17.5302 29.1956 15.0177 26.5357 15.5219M59.5292 21.4751C60.6406 21.2428 60.3658 22.7237 60.2821 23.2272C60.0258 24.7683 59.5852 26.2087 58.773 27.6146C58.5211 28.0508 58.1863 28.8237 57.5443 28.9139C56.5991 29.0467 56.7787 27.4234 56.8204 26.9453C56.9443 25.525 57.5142 24.0482 58.2577 22.7828C58.5288 22.3214 58.8871 21.61 59.5259 21.4779M25.0799 0.0288593C24.0012 0.0301325 23.7019 1.12235 23.1924 1.8459L19.8851 6.54262C19.624 6.91339 19.4488 7.18363 18.7861 7.38199C12.9883 9.11743 2.06287 12.4332 1.39249 12.5884C0.0728825 12.8935 -0.0386363 14.3268 1.91662 14.3268H67.536C68.7866 14.3268 69.2892 13.2544 68.6262 12.6727C68.3556 12.4352 54.506 7.61251 54.0503 7.45337C53.3011 7.19179 53.2601 7.09323 53.1175 6.46737L52.1391 2.17309C51.8766 1.02118 51.6401 -0.00229823 50.0985 -0.000485878L25.0799 0.0288593ZM4.94029 19.1766C4.62331 20.0694 0.287634 31.8137 0.14579 32.1759C-0.229392 33.1332 0.167526 33.1936 1.17141 33.1803C2.93617 33.157 6.03726 33.1103 6.46567 33.1103C6.87693 33.1103 7.02651 32.554 7.1599 32.1771L10.9903 21.3521C11.2449 20.6325 11.5673 19.2533 12.5811 18.8084C13.5949 18.3635 14.4446 18.976 14.7735 19.7601C15.2171 20.8175 14.8208 21.9843 14.474 23.0226C14.1585 23.9672 13.4624 24.9948 12.4942 25.5368C11.6465 26.0114 10.8879 25.7207 10.7979 25.8485C10.1741 26.7333 11.1489 27.9354 11.9047 28.2735C12.6126 28.5901 14.9269 28.6737 16.4224 28.0771C19.3094 26.9255 21.0857 24.3066 21.1283 21.607C21.1831 18.1456 18.0014 16.7203 14.5675 16.7375C11.9168 16.7507 7.69747 16.7771 6.61537 16.7771C5.62183 16.7771 5.59349 17.3359 4.94003 19.1765L4.94029 19.1766ZM58.5158 30.0766C58.3847 30.4989 58.2597 30.959 58.186 31.1964C58.0082 31.7692 58.5413 31.6768 58.8344 31.6768H62.2674C62.8384 31.6768 62.9311 31.31 63.1848 30.6215L66.709 21.0573C66.8685 20.6245 66.6859 20.5472 65.3921 20.9865C64.637 21.2429 63.8794 21.7453 63.0697 21.4018C62.116 20.9972 61.5886 20.5381 60.4967 20.3896C57.2049 19.9419 53.883 21.9871 52.4156 24.4366C51.3829 26.1608 51.0509 27.7832 51.2524 29.7239C51.3487 30.652 52.0792 31.7788 53.2203 32.0138C55.3509 32.4527 57.2273 30.7308 58.2709 29.8304C58.4431 29.6818 58.5783 29.8755 58.5158 30.0766ZM23.5929 20.7253C23.0583 20.7253 22.9067 21.437 22.7562 21.839L19.413 30.7744C19.247 31.218 19.0588 31.6174 19.5636 31.6249L24.5722 31.6991C25.0253 31.7059 25.225 31.2904 25.3552 30.9388L28.3336 22.8934C28.9098 21.3373 29.4491 20.7252 28.3526 20.7252L23.5929 20.7253ZM26.9465 31.121C26.5087 31.5041 27.0572 31.5408 27.3436 31.4893C28.4673 31.2875 29.9295 31.4709 31.1567 32.0616C32.3367 32.6295 33.0628 33.6905 34.0021 34.4915C35.8658 36.081 38.4671 37.3734 41.1725 37.2637C42.2088 37.2216 43.1744 36.8183 43.9923 36.2725C44.2242 36.1177 44.8289 35.7757 44.7803 35.4776C44.7318 35.1795 44.023 35.2705 43.7818 35.2311C42.9735 35.0992 42.3471 34.7342 41.7787 34.2449C40.1625 32.8538 39.1597 31.1821 37.118 30.1669C35.6528 29.4384 34.7519 29.1092 32.7772 29.1092C32.5279 29.1092 32.4185 28.8731 33.1256 28.402L39.9857 23.8324C40.6816 23.3689 40.5721 23.3143 40.907 22.6021L41.5876 21.155C41.8049 20.693 41.1131 20.7357 40.5591 20.7357H32.2358C30.4941 20.7357 30.5011 20.6432 30.012 21.9869C30.012 21.9869 29.5247 23.3257 29.2811 23.995C29.1575 24.3347 28.9889 24.7001 29.5297 24.7001H33.5726C33.9869 24.7001 33.9181 25.0218 33.7515 25.1676L26.9465 31.121ZM45.5249 24.4508L39.6558 29.3809C39.3384 29.6475 39.4081 29.9029 39.6142 29.885C40.858 29.7767 41.9751 29.8953 43.1341 30.5149C44.1391 31.0522 44.7347 31.9265 45.5492 32.6383C47.3095 34.1765 50.0485 35.7027 52.7197 35.4114C54.6805 35.1977 54.8531 35.0291 55.5822 34.4C55.6758 34.3193 55.7253 34.1084 55.329 34.0963C51.7567 33.9872 51.2616 31.849 49.2519 30.0369C48.0121 28.919 46.3586 28.1446 44.5949 28.1446C44.0976 28.1446 44.1412 27.8872 44.7814 27.4546C45.8763 26.7146 50.2831 23.731 50.6672 23.4982C50.924 23.3425 51.2808 23.0253 51.5373 22.5429C51.7626 22.1192 52.0843 21.4643 52.2132 21.2717C52.45 20.9177 52.197 20.7247 51.77 20.7247H43.8469C43.1221 20.7247 43.0062 20.7795 42.8159 21.1976L41.7761 23.4826C41.6534 23.7522 41.5197 24.1493 41.9857 24.1493H45.4219C45.6635 24.1493 45.6519 24.3442 45.5249 24.4508ZM4.37081 37.5137C3.76163 39.1609 4.77689 40.8546 6.77214 41.4125C7.22837 41.5401 8.95579 41.2032 8.78259 41.6803L6.14196 48.9541C5.80358 49.8862 6.33721 49.8598 7.11435 49.8598H12.2417C12.704 49.8598 12.9367 49.4001 13.0801 49.0232C13.7123 47.362 14.5416 44.9725 14.9063 44.0199C15.2684 43.0741 15.2346 42.4868 16.6216 42.6141C17.613 42.7052 17.9135 43.3499 17.8736 44.1486C17.8298 45.025 16.6712 47.6678 16.481 48.2206C16.0499 49.4739 15.6658 49.8643 17.1057 49.8643H21.5055C22.2323 49.8643 22.785 49.988 23.1348 49.0272L28.4489 34.4306C28.8418 33.3514 28.5122 33.4174 27.3224 33.4181L23.2518 33.4207C22.5954 33.4212 21.9704 33.3962 21.8119 33.8428L19.9935 38.967C19.7857 39.5525 19.5707 40.6311 18.7119 40.6688C17.757 40.7107 16.816 39.9615 16.7831 39.3382C16.7357 38.44 17.909 35.6624 18.3788 34.4533C18.5253 34.0763 18.8538 33.4442 18.103 33.4442H12.5181C11.6881 33.4442 11.6226 34.0934 11.4986 34.4364L10.5499 37.0599C10.3319 37.6627 10.1826 38.0265 9.56293 38.1698C9.0409 38.2905 6.79971 39.1543 5.73458 38.6236C4.6694 38.093 4.60832 36.8715 4.37081 37.5137ZM30.5691 35.4642L27.1792 44.3306C26.8549 45.1787 26.5982 46.1006 26.6628 47.0062C26.8764 50 31.835 50.4804 34.6279 49.3624C37.2566 48.3099 38.1067 45.3556 38.508 44.3898C38.7833 43.7272 40.3655 39.8443 40.4684 39.5128C40.6524 38.9202 39.9451 39.0138 39.4251 39.0138C38.8013 39.0138 37.9488 38.7784 37.5034 38.7638C37.0111 38.7478 36.7993 38.9629 36.7007 39.3214L34.848 46.0559C34.6021 46.9496 33.8776 47.6769 32.9297 47.4196C31.5064 47.0332 32.3235 45.0904 32.6645 44.2308L35.1105 38.0658C35.2643 37.678 34.2201 37.3239 33.653 36.9485C33.0859 36.573 32.3721 35.9691 31.8381 35.3434C31.3042 34.7177 31.0151 34.2981 30.5691 35.4644L30.5691 35.4642ZM46.911 36.2795C46.5021 36.8337 45.809 37.6632 45.1455 38.0751C44.0144 38.7772 42.4318 38.7986 42.1857 39.1666C42.1857 39.1666 41.5376 40.5006 41.5046 40.9758C41.4653 41.544 42.5477 40.962 42.7763 41.4205C42.9437 41.7565 42.1575 43.7826 42.1575 43.7826C41.7723 45.0395 41.1576 46.4092 41.46 47.7198C42.0115 50.1103 45.444 50.3937 47.4629 49.4602C48.0296 49.1982 48.8507 48.3628 49.2322 47.7925C49.4867 47.4123 48.8858 47.4347 48.4114 47.4347C48.0013 47.4347 47.6956 47.1425 47.5338 46.8243C46.9004 45.5788 48.1567 43.2545 48.5438 42.0079C48.8482 41.0273 50.0898 41.3082 51.0271 41.3082C51.8118 41.3082 52.1774 39.8024 52.243 39.1324C52.302 38.5295 50.4959 39.0802 49.9369 38.8017C49.4959 38.5819 50.2587 37.5522 50.1427 37.0966C50.0805 36.8522 49.5452 36.8217 49.2977 36.7564C48.7239 36.6051 48.0488 36.3307 47.5242 36.1221C47.4008 36.073 47.0463 36.0961 46.911 36.2795Z" stroke="#C70307"/>
</g>
<defs>
<clipPath id="clip0_33_25">
<rect width="69" height="50" fill="white"/>
</clipPath>
</defs>
</svg>
