<svg width="20" height="20" viewBox="0 0 20 20" fill="none" xmlns="http://www.w3.org/2000/svg">
<g clip-path="url(#clip0_426_4468)">
<path d="M19.6556 16.5517H0.345331C0.154902 16.5517 0.000488281 16.3973 0.000488281 16.2069V3.79309C0.000488281 3.60266 0.154902 3.44824 0.345331 3.44824H19.6556C19.8461 3.44824 20.0005 3.60266 20.0005 3.79309V16.2069C20.0005 16.3973 19.846 16.5517 19.6556 16.5517Z" fill="#FF4B55"/>
<path d="M7.24184 3.44824H0.345331C0.154902 3.44824 0.000488281 3.60262 0.000488281 3.79305V16.2068C0.000488281 16.3972 0.154902 16.5517 0.345331 16.5517H7.24188V3.44824H7.24184Z" fill="#73AF00"/>
<path d="M7.2447 13.1007C8.95721 13.1007 10.3455 11.7125 10.3455 9.99995C10.3455 8.28743 8.95721 6.89917 7.2447 6.89917C5.53219 6.89917 4.14392 8.28743 4.14392 9.99995C4.14392 11.7125 5.53219 13.1007 7.2447 13.1007Z" fill="#FFE15A"/>
<path d="M8.27905 8.96553V10.3448C8.27905 10.9152 7.81499 11.3793 7.24456 11.3793C6.67413 11.3793 6.21007 10.9152 6.21007 10.3448V8.96553H8.27905ZM8.62386 8.27588H5.86523C5.6748 8.27588 5.52039 8.43029 5.52039 8.62072V10.3449C5.52039 11.297 6.29234 12.069 7.24452 12.069C8.19671 12.069 8.96866 11.297 8.96866 10.3449V8.62072C8.9687 8.43029 8.81429 8.27588 8.62386 8.27588Z" fill="#FF4B55"/>
<path d="M8.27919 8.96558V10.3449C8.27919 10.9153 7.81512 11.3794 7.2447 11.3794C6.67427 11.3794 6.21021 10.9153 6.21021 10.3449V8.96558H8.27919Z" fill="#F5F5F5"/>
<path d="M5.862 8.79309C5.95722 8.79309 6.03442 8.71589 6.03442 8.62066C6.03442 8.52544 5.95722 8.44824 5.862 8.44824C5.76677 8.44824 5.68958 8.52544 5.68958 8.62066C5.68958 8.71589 5.76677 8.79309 5.862 8.79309Z" fill="#FFE15A"/>
<path d="M8.62054 8.79309C8.71577 8.79309 8.79296 8.71589 8.79296 8.62066C8.79296 8.52544 8.71577 8.44824 8.62054 8.44824C8.52532 8.44824 8.44812 8.52544 8.44812 8.62066C8.44812 8.71589 8.52532 8.79309 8.62054 8.79309Z" fill="#FFE15A"/>
<path d="M5.862 10.1725C5.95722 10.1725 6.03442 10.0953 6.03442 10.0001C6.03442 9.90483 5.95722 9.82764 5.862 9.82764C5.76677 9.82764 5.68958 9.90483 5.68958 10.0001C5.68958 10.0953 5.76677 10.1725 5.862 10.1725Z" fill="#FFE15A"/>
<path d="M8.62054 10.1725C8.71577 10.1725 8.79296 10.0953 8.79296 10.0001C8.79296 9.90483 8.71577 9.82764 8.62054 9.82764C8.52532 9.82764 8.44812 9.90483 8.44812 10.0001C8.44812 10.0953 8.52532 10.1725 8.62054 10.1725Z" fill="#FFE15A"/>
<path d="M7.24127 8.79309C7.3365 8.79309 7.41369 8.71589 7.41369 8.62066C7.41369 8.52544 7.3365 8.44824 7.24127 8.44824C7.14604 8.44824 7.06885 8.52544 7.06885 8.62066C7.06885 8.71589 7.14604 8.79309 7.24127 8.79309Z" fill="#FFE15A"/>
<path d="M8.27643 11.444C8.37165 11.444 8.44885 11.3668 8.44885 11.2715C8.44885 11.1763 8.37165 11.0991 8.27643 11.0991C8.1812 11.0991 8.104 11.1763 8.104 11.2715C8.104 11.3668 8.1812 11.444 8.27643 11.444Z" fill="#FFE15A"/>
<path d="M6.2265 11.444C6.32172 11.444 6.39892 11.3668 6.39892 11.2715C6.39892 11.1763 6.32172 11.0991 6.2265 11.0991C6.13127 11.0991 6.05408 11.1763 6.05408 11.2715C6.05408 11.3668 6.13127 11.444 6.2265 11.444Z" fill="#FFE15A"/>
<path d="M7.46683 9.9126V10.2095C7.46683 10.3324 7.36691 10.4323 7.2441 10.4323C7.12128 10.4323 7.02136 10.3324 7.02136 10.2095V9.9126H7.46683Z" fill="#41479B"/>
<path d="M7.46683 9.2085V9.50545C7.46683 9.62826 7.36691 9.72818 7.2441 9.72818C7.12128 9.72818 7.02136 9.62826 7.02136 9.50545V9.2085H7.46683Z" fill="#41479B"/>
<path d="M7.46683 10.6238V10.9207C7.46683 11.0435 7.36691 11.1435 7.2441 11.1435C7.12128 11.1435 7.02136 11.0435 7.02136 10.9207V10.6238H7.46683Z" fill="#41479B"/>
<path d="M8.06681 9.9126V10.2095C8.06681 10.3324 7.96688 10.4323 7.84407 10.4323C7.72126 10.4323 7.62134 10.3324 7.62134 10.2095V9.9126H8.06681Z" fill="#41479B"/>
<path d="M6.86698 9.9126V10.2095C6.86698 10.3324 6.76706 10.4323 6.64424 10.4323C6.52143 10.4323 6.42151 10.3324 6.42151 10.2095V9.9126H6.86698Z" fill="#41479B"/>
</g>
<defs>
<clipPath id="clip0_426_4468">
<rect width="20" height="20" fill="white"/>
</clipPath>
</defs>
</svg>
