<svg width="29" height="29" viewBox="0 0 29 29" fill="none" xmlns="http://www.w3.org/2000/svg">
<path d="M28.9974 12.1283C29 12.0951 29 12.0643 29 12.0311V3.43781C29 2.76971 28.7339 2.16303 28.2989 1.72019C28.2835 1.70483 28.2682 1.68947 28.2554 1.67667L27.3086 0.729544C27.3009 0.721864 27.2958 0.716745 27.2881 0.709065C26.8454 0.268779 26.2364 0 25.566 0H12.055C10.7013 0 9.60355 1.09816 9.60355 2.45229V3.63748L6.68384 0.716745C6.24115 0.273899 5.62702 0 4.95147 0H3.56966C2.93506 0 2.35419 0.240621 1.91917 0.637391C1.90894 0.64507 1.90126 0.655309 1.89103 0.662989L1.78099 0.77562C1.77076 0.7833 1.76308 0.793539 1.75285 0.803778L0 2.55468V28.9974H9.60355V17.2121L20.6708 28.2833C21.116 28.7261 21.7276 29 22.4032 29H25.6043C26.2543 29 26.8428 28.7491 27.2804 28.337L28.281 27.3361C28.7262 26.8933 29 26.2789 29 25.6031V24.057C29 23.4222 28.7595 22.8437 28.3628 22.4085C28.35 22.3957 28.3372 22.3804 28.3219 22.3676L20.4456 14.4834H26.5486C27.869 14.4834 28.9463 13.4364 28.9974 12.1283ZM24.2456 9.72213H15.6861L14.5755 8.61117V4.90458H21.7762L24.2456 7.37479V9.72213ZM14.4552 8.84412L13.3447 7.73316V4.02657H20.5454L23.0147 6.49678V8.84412H14.4552Z" fill="white"/>
</svg>
