<svg width="62" height="57" viewBox="0 0 62 57" fill="none" xmlns="http://www.w3.org/2000/svg">
<path fill-rule="evenodd" clip-rule="evenodd" d="M62 56.8333H10.3333C4.62933 56.8333 0 52.204 0 46.5V5.95717C0.808583 3.19042 3.31958 0 7.75 0C12.5421 0 14.9032 3.46683 15.4871 5.97267L15.5 10.3333H62V56.8333ZM56.8333 15.5H15.5V43.9167C15.5 43.9167 13.9629 41.3333 10.5348 41.3333C7.68283 41.3333 5.16667 43.648 5.16667 46.5C5.16667 49.352 7.48133 51.6667 10.3333 51.6667H56.8333V15.5ZM51.6667 46.5H20.6667V20.6667H51.6667V46.5ZM31 23.25H23.25V43.9167H49.0833V33.5833H43.9167V41.3333H41.3333V33.5833H33.5833V41.3333H31V23.25ZM10.3333 6.87425C9.73142 4.495 5.66525 4.50533 5.16667 6.87425V37.8665C6.22067 36.7789 8.73942 35.9962 10.3333 36.1667V6.87425ZM33.5833 23.25V31H49.0833V23.25H33.5833Z" fill="#124A61"/>
</svg>
