<svg width="18" height="18" viewBox="0 0 18 18" fill="none" xmlns="http://www.w3.org/2000/svg">
<g clip-path="url(#clip0_136_26)">
<path fill-rule="evenodd" clip-rule="evenodd" d="M2.12067 0.574918C2.31751 0.378368 2.55388 0.225896 2.81411 0.127607C3.07434 0.0293176 3.35249 -0.0125448 3.63012 0.00479393C3.90776 0.0221327 4.17853 0.0982766 4.42451 0.22818C4.67049 0.358083 4.88605 0.538779 5.05692 0.758293L7.07629 3.35254C7.44642 3.82842 7.57692 4.44829 7.43067 5.03329L6.81529 7.49704C6.7837 7.62466 6.78553 7.75827 6.8206 7.88498C6.85568 8.01169 6.92282 8.12721 7.01554 8.22042L9.77967 10.9845C9.87298 11.0775 9.9887 11.1447 10.1156 11.1798C10.2425 11.2149 10.3764 11.2166 10.5042 11.1848L12.9668 10.5694C13.2555 10.4977 13.5567 10.4923 13.8479 10.5536C14.139 10.615 14.4124 10.7416 14.6475 10.9238L17.2418 12.942C18.1744 13.6677 18.2599 15.0458 17.4252 15.8794L16.2619 17.0427C15.4294 17.8752 14.1852 18.2408 13.0253 17.8324C10.056 16.7891 7.3604 15.0894 5.13904 12.8599C2.90971 10.6389 1.21004 7.94363 0.166542 4.97479C-0.240708 3.81604 0.124917 2.57067 0.957417 1.73817L2.12067 0.574918Z" fill="white"/>
</g>
<defs>
<clipPath id="clip0_136_26">
<rect width="18" height="18" fill="white"/>
</clipPath>
</defs>
</svg>
