<svg width="62" height="62" viewBox="0 0 62 62" fill="none" xmlns="http://www.w3.org/2000/svg">
<g clip-path="url(#clip0_26_147)">
<path d="M41.1008 34.4617L47.9105 24.0612L46.7377 23.0123L37.2491 31.0181C35.5053 30.6616 33.6272 31.1937 32.3562 32.6146C30.4549 34.7407 30.6383 38.0086 32.767 39.9099C34.8957 41.8112 38.161 41.6278 40.0623 39.4992C41.3333 38.0783 41.6511 36.1537 41.1008 34.4617ZM31 6.9595V0H41.3333V6.9595C37.6159 6.33175 34.6373 6.34467 31 6.9595ZM53.8651 12.2915L57.4998 8.65675L61.1527 12.3096L57.7401 15.7222C56.5466 14.4718 55.2497 13.3274 53.8651 12.2915ZM5.16667 23.25H25.8333V28.4167H5.16667V23.25ZM0 33.5833H20.6667V38.75H0V33.5833ZM7.75 43.9167H25.8333V49.0833H7.75V43.9167ZM62 36.1667C62 50.4344 50.4344 62 36.1667 62C28.9592 62 22.475 59.0162 17.7966 54.25H26.2699C29.2097 55.8801 32.5707 56.8333 36.1667 56.8333C47.5617 56.8333 56.8333 47.5617 56.8333 36.1667C56.8333 24.7716 47.5617 15.5 36.1667 15.5C32.5707 15.5 29.2097 16.4532 26.2699 18.0833H17.7966C22.475 13.3171 28.9592 10.3333 36.1667 10.3333C50.4344 10.3333 62 21.8989 62 36.1667Z" fill="#124A61"/>
</g>
<defs>
<clipPath id="clip0_26_147">
<rect width="62" height="62" fill="white"/>
</clipPath>
</defs>
</svg>
